<?xml version="1.0" encoding="UTF-8" standalone="no"?>
<!DOCTYPE svg PUBLIC "-//W3C//DTD SVG 1.1//EN"
 "http://www.w3.org/Graphics/SVG/1.1/DTD/svg11.dtd">
<!-- Generated by graphviz version 2.40.1 (20161225.0304)
 -->
<!-- Title: %3 Pages: 1 -->
<svg width="819pt" height="194pt"
 viewBox="0.00 0.00 818.73 194.00" xmlns="http://www.w3.org/2000/svg" xmlns:xlink="http://www.w3.org/1999/xlink">
<g id="graph0" class="graph" transform="scale(1 1) rotate(0) translate(4 190)">
<title>%3</title>
<polygon fill="#ffffff" stroke="transparent" points="-4,4 -4,-190 814.7275,-190 814.7275,4 -4,4"/>
<!-- YFP -->
<g id="node1" class="node">
<title>YFP</title>
<text text-anchor="middle" x="776.2656" y="-68.8" font-family="Times,serif" font-size="14.00" fill="#000000">YFP</text>
<text text-anchor="middle" x="776.2656" y="-54.8" font-family="Times,serif" font-size="14.00" fill="#000000"> &#160;700.00</text>
<text text-anchor="middle" x="776.2656" y="-40.8" font-family="Times,serif" font-size="14.00" fill="#000000">11111110</text>
</g>
<!-- pTac -->
<g id="node2" class="node">
<title>pTac</title>
<text text-anchor="middle" x="48.9883" y="-170.8" font-family="Times,serif" font-size="14.00" fill="#000000">INPUT pTac 0</text>
<text text-anchor="middle" x="48.9883" y="-156.8" font-family="Times,serif" font-size="14.00" fill="#000000"> &#160;823.53</text>
<text text-anchor="middle" x="48.9883" y="-142.8" font-family="Times,serif" font-size="14.00" fill="#000000">01010101</text>
</g>
<!-- P1_PhlF -->
<g id="node9" class="node">
<title>P1_PhlF</title>
<polygon fill="#ffffff" stroke="#000000" points="244.5076,-186 137.9583,-186 137.9583,-136 244.5076,-136 244.5076,-186"/>
<text text-anchor="middle" x="191.2329" y="-170.8" font-family="Times,serif" font-size="14.00" fill="#000000">NOT P1_PhlF 1</text>
<text text-anchor="middle" x="191.2329" y="-156.8" font-family="Times,serif" font-size="14.00" fill="#000000"> &#160;389.93</text>
<text text-anchor="middle" x="191.2329" y="-142.8" font-family="Times,serif" font-size="14.00" fill="#000000">10101010</text>
</g>
<!-- pTac&#45;&gt;P1_PhlF -->
<g id="edge9" class="edge">
<title>pTac&#45;&gt;P1_PhlF</title>
<path fill="none" stroke="#000000" d="M98.3393,-161C98.3393,-161 127.6004,-161 127.6004,-161"/>
<polygon fill="#000000" stroke="#000000" points="127.6005,-164.5001 137.6004,-161 127.6004,-157.5001 127.6005,-164.5001"/>
</g>
<!-- pTet -->
<g id="node3" class="node">
<title>pTet</title>
<text text-anchor="middle" x="48.9883" y="-102.8" font-family="Times,serif" font-size="14.00" fill="#000000">INPUT pTet 0</text>
<text text-anchor="middle" x="48.9883" y="-88.8" font-family="Times,serif" font-size="14.00" fill="#000000"> 3384.62</text>
<text text-anchor="middle" x="48.9883" y="-74.8" font-family="Times,serif" font-size="14.00" fill="#000000">00110011</text>
</g>
<!-- Q1_QacR -->
<g id="node10" class="node">
<title>Q1_QacR</title>
<polygon fill="#ffffff" stroke="#000000" points="248.2466,-118 134.2192,-118 134.2192,-68 248.2466,-68 248.2466,-118"/>
<text text-anchor="middle" x="191.2329" y="-102.8" font-family="Times,serif" font-size="14.00" fill="#000000">NOT Q1_QacR 1</text>
<text text-anchor="middle" x="191.2329" y="-88.8" font-family="Times,serif" font-size="14.00" fill="#000000"> &#160;239.67</text>
<text text-anchor="middle" x="191.2329" y="-74.8" font-family="Times,serif" font-size="14.00" fill="#000000">11001100</text>
</g>
<!-- pTet&#45;&gt;Q1_QacR -->
<g id="edge10" class="edge">
<title>pTet&#45;&gt;Q1_QacR</title>
<path fill="none" stroke="#000000" d="M96.7494,-93C96.7494,-93 123.9818,-93 123.9818,-93"/>
<polygon fill="#000000" stroke="#000000" points="123.9819,-96.5001 133.9818,-93 123.9818,-89.5001 123.9819,-96.5001"/>
</g>
<!-- pBAD -->
<g id="node4" class="node">
<title>pBAD</title>
<text text-anchor="middle" x="191.2329" y="-34.8" font-family="Times,serif" font-size="14.00" fill="#000000">INPUT pBAD 0</text>
<text text-anchor="middle" x="191.2329" y="-20.8" font-family="Times,serif" font-size="14.00" fill="#000000"> &#160;304.88</text>
<text text-anchor="middle" x="191.2329" y="-6.8" font-family="Times,serif" font-size="14.00" fill="#000000">00001111</text>
</g>
<!-- QS1_DigiJQ -->
<g id="node8" class="node">
<title>QS1_DigiJQ</title>
<polygon fill="#ffffff" stroke="#000000" points="415.296,-50 284.5536,-50 284.5536,0 415.296,0 415.296,-50"/>
<text text-anchor="middle" x="349.9248" y="-34.8" font-family="Times,serif" font-size="14.00" fill="#000000">NOT QS1_DigiJQ 1</text>
<text text-anchor="middle" x="349.9248" y="-20.8" font-family="Times,serif" font-size="14.00" fill="#000000">124452.05</text>
<text text-anchor="middle" x="349.9248" y="-6.8" font-family="Times,serif" font-size="14.00" fill="#000000">11110000</text>
</g>
<!-- pBAD&#45;&gt;QS1_DigiJQ -->
<g id="edge6" class="edge">
<title>pBAD&#45;&gt;QS1_DigiJQ</title>
<path fill="none" stroke="#000000" d="M244.9587,-25C244.9587,-25 274.4267,-25 274.4267,-25"/>
<polygon fill="#000000" stroke="#000000" points="274.4268,-28.5001 284.4267,-25 274.4267,-21.5001 274.4268,-28.5001"/>
</g>
<!-- S2_SrpR -->
<g id="node5" class="node">
<title>S2_SrpR</title>
<polygon fill="#ffffff" stroke="#000000" points="705.8531,-84 596.6557,-84 596.6557,-34 705.8531,-34 705.8531,-84"/>
<text text-anchor="middle" x="651.2544" y="-68.8" font-family="Times,serif" font-size="14.00" fill="#000000">NOT S2_SrpR 5</text>
<text text-anchor="middle" x="651.2544" y="-54.8" font-family="Times,serif" font-size="14.00" fill="#000000"> &#160;700.00</text>
<text text-anchor="middle" x="651.2544" y="-40.8" font-family="Times,serif" font-size="14.00" fill="#000000">11111110</text>
</g>
<!-- S2_SrpR&#45;&gt;YFP -->
<g id="edge1" class="edge">
<title>S2_SrpR&#45;&gt;YFP</title>
<path fill="none" stroke="#000000" d="M706.0861,-59C706.0861,-59 731.6246,-59 731.6246,-59"/>
<polygon fill="#000000" stroke="#000000" points="731.6246,-62.5001 741.6246,-59 731.6246,-55.5001 731.6246,-62.5001"/>
</g>
<!-- J2_DigiJ -->
<g id="node6" class="node">
<title>J2_DigiJ</title>
<polygon fill="#ffffff" stroke="#000000" points="560.878,-84 451.1874,-84 451.1874,-34 560.878,-34 560.878,-84"/>
<text text-anchor="middle" x="506.0327" y="-68.8" font-family="Times,serif" font-size="14.00" fill="#000000">NOR J2_DigiJ 4</text>
<text text-anchor="middle" x="506.0327" y="-54.8" font-family="Times,serif" font-size="14.00" fill="#000000">2346988.39</text>
<text text-anchor="middle" x="506.0327" y="-40.8" font-family="Times,serif" font-size="14.00" fill="#000000">00000001</text>
</g>
<!-- J2_DigiJ&#45;&gt;S2_SrpR -->
<g id="edge2" class="edge">
<title>J2_DigiJ&#45;&gt;S2_SrpR</title>
<path fill="none" stroke="#000000" d="M560.9348,-59C560.9348,-59 586.2747,-59 586.2747,-59"/>
<polygon fill="#000000" stroke="#000000" points="586.2747,-62.5001 596.2747,-59 586.2746,-55.5001 586.2747,-62.5001"/>
</g>
<!-- P3_PhlF -->
<g id="node7" class="node">
<title>P3_PhlF</title>
<polygon fill="#ffffff" stroke="#000000" points="403.7316,-118 296.118,-118 296.118,-68 403.7316,-68 403.7316,-118"/>
<text text-anchor="middle" x="349.9248" y="-102.8" font-family="Times,serif" font-size="14.00" fill="#000000">NOR P3_PhlF 2</text>
<text text-anchor="middle" x="349.9248" y="-88.8" font-family="Times,serif" font-size="14.00" fill="#000000"> &#160;334.11</text>
<text text-anchor="middle" x="349.9248" y="-74.8" font-family="Times,serif" font-size="14.00" fill="#000000">00010001</text>
</g>
<!-- P3_PhlF&#45;&gt;J2_DigiJ -->
<g id="edge3" class="edge">
<title>P3_PhlF&#45;&gt;J2_DigiJ</title>
<path fill="none" stroke="#000000" d="M404.0857,-73.3333C404.0857,-73.3333 441.1741,-73.3333 441.1741,-73.3333"/>
<polygon fill="#000000" stroke="#000000" points="441.1742,-76.8334 451.1741,-73.3333 441.1741,-69.8334 441.1742,-76.8334"/>
</g>
<!-- P3_PhlF&#45;&gt;P3_PhlF -->
<g id="edge5" class="edge">
<title>P3_PhlF&#45;&gt;P3_PhlF</title>
<path fill="none" stroke="#000000" d="M295.7747,-84.6667C292.6389,-84.6667 290.7275,-84.6667 290.7275,-84.6667 290.7275,-84.6667 290.7275,-59 290.7275,-59 290.7275,-59 409.7275,-59 409.7275,-59 409.7275,-59 409.7275,-78.6667 409.7275,-78.6667 409.7275,-78.6667 409.1323,-78.6667 409.1323,-78.6667"/>
<polygon fill="#000000" stroke="#000000" points="413.7749,-75.1669 403.7748,-78.6667 413.7747,-82.1669 413.7749,-75.1669"/>
</g>
<!-- QS1_DigiJQ&#45;&gt;J2_DigiJ -->
<g id="edge4" class="edge">
<title>QS1_DigiJQ&#45;&gt;J2_DigiJ</title>
<path fill="none" stroke="#000000" d="M415.6762,-42C415.6762,-42 441.2093,-42 441.2093,-42"/>
<polygon fill="#000000" stroke="#000000" points="441.2093,-45.5001 451.2093,-42 441.2092,-38.5001 441.2093,-45.5001"/>
</g>
<!-- P1_PhlF&#45;&gt;P3_PhlF -->
<g id="edge7" class="edge">
<title>P1_PhlF&#45;&gt;P3_PhlF</title>
<path fill="none" stroke="#000000" d="M244.786,-161C291.1209,-161 350.7275,-161 350.7275,-161 350.7275,-161 350.7275,-128.3207 350.7275,-128.3207"/>
<polygon fill="#000000" stroke="#000000" points="354.2276,-128.3207 350.7275,-118.3207 347.2276,-128.3207 354.2276,-128.3207"/>
</g>
<!-- Q1_QacR&#45;&gt;P3_PhlF -->
<g id="edge8" class="edge">
<title>Q1_QacR&#45;&gt;P3_PhlF</title>
<path fill="none" stroke="#000000" d="M248.5243,-101.3333C248.5243,-101.3333 285.8944,-101.3333 285.8944,-101.3333"/>
<polygon fill="#000000" stroke="#000000" points="285.8945,-104.8334 295.8944,-101.3333 285.8944,-97.8334 285.8945,-104.8334"/>
</g>
</g>
</svg>
