<?xml version="1.0" encoding="UTF-8" standalone="no"?>
<!DOCTYPE svg PUBLIC "-//W3C//DTD SVG 1.1//EN"
 "http://www.w3.org/Graphics/SVG/1.1/DTD/svg11.dtd">
<!-- Generated by graphviz version 2.40.1 (20161225.0304)
 -->
<!-- Title: %3 Pages: 1 -->
<svg width="584pt" height="251pt"
 viewBox="0.00 0.00 584.00 251.00" xmlns="http://www.w3.org/2000/svg" xmlns:xlink="http://www.w3.org/1999/xlink">
<g id="graph0" class="graph" transform="scale(1 1) rotate(0) translate(4 247)">
<title>%3</title>
<polygon fill="#ffffff" stroke="transparent" points="-4,4 -4,-247 580,-247 580,4 -4,4"/>
<!-- YFP -->
<g id="node1" class="node">
<title>YFP</title>
<text text-anchor="middle" x="549" y="-76.8" font-family="Times,serif" font-size="14.00" fill="#000000">YFP</text>
</g>
<!-- pTac -->
<g id="node2" class="node">
<title>pTac</title>
<text text-anchor="middle" x="27" y="-202.8" font-family="Times,serif" font-size="14.00" fill="#000000">pTac</text>
</g>
<!-- P1_PhlF -->
<g id="node9" class="node">
<title>P1_PhlF</title>
<image xlink:href="demo_FixedGatesDigital0xFE_005_A000_xfer_model_P1_PhlF.png" width="72px" height="72px" preserveAspectRatio="xMinYMin meet" x="90" y="-243"/>
</g>
<!-- pTac&#45;&gt;P1_PhlF -->
<g id="edge9" class="edge">
<title>pTac&#45;&gt;P1_PhlF</title>
<path fill="none" stroke="#000000" d="M54.0522,-207C54.0522,-207 79.6982,-207 79.6982,-207"/>
<polygon fill="#000000" stroke="#000000" points="79.6982,-210.5001 89.6982,-207 79.6982,-203.5001 79.6982,-210.5001"/>
</g>
<!-- pTet -->
<g id="node3" class="node">
<title>pTet</title>
<text text-anchor="middle" x="27" y="-112.8" font-family="Times,serif" font-size="14.00" fill="#000000">pTet</text>
</g>
<!-- Q1_QacR -->
<g id="node10" class="node">
<title>Q1_QacR</title>
<image xlink:href="demo_FixedGatesDigital0xFE_005_A000_xfer_model_Q1_QacR.png" width="72px" height="72px" preserveAspectRatio="xMinYMin meet" x="90" y="-153"/>
</g>
<!-- pTet&#45;&gt;Q1_QacR -->
<g id="edge10" class="edge">
<title>pTet&#45;&gt;Q1_QacR</title>
<path fill="none" stroke="#000000" d="M54.0522,-117C54.0522,-117 79.6982,-117 79.6982,-117"/>
<polygon fill="#000000" stroke="#000000" points="79.6982,-120.5001 89.6982,-117 79.6982,-113.5001 79.6982,-120.5001"/>
</g>
<!-- pBAD -->
<g id="node4" class="node">
<title>pBAD</title>
<text text-anchor="middle" x="126" y="-31.8" font-family="Times,serif" font-size="14.00" fill="#000000">pBAD</text>
</g>
<!-- QS1_DigiJQ -->
<g id="node8" class="node">
<title>QS1_DigiJQ</title>
<image xlink:href="demo_FixedGatesDigital0xFE_005_A000_xfer_model_QS1_DigiJQ.png" width="72px" height="72px" preserveAspectRatio="xMinYMin meet" x="198" y="-72"/>
</g>
<!-- pBAD&#45;&gt;QS1_DigiJQ -->
<g id="edge6" class="edge">
<title>pBAD&#45;&gt;QS1_DigiJQ</title>
<path fill="none" stroke="#000000" d="M153.253,-36C153.253,-36 187.7747,-36 187.7747,-36"/>
<polygon fill="#000000" stroke="#000000" points="187.7747,-39.5001 197.7747,-36 187.7747,-32.5001 187.7747,-39.5001"/>
</g>
<!-- S2_SrpR -->
<g id="node5" class="node">
<title>S2_SrpR</title>
<image xlink:href="demo_FixedGatesDigital0xFE_005_A000_xfer_model_S2_SrpR.png" width="72px" height="72px" preserveAspectRatio="xMinYMin meet" x="414" y="-117"/>
</g>
<!-- S2_SrpR&#45;&gt;YFP -->
<g id="edge1" class="edge">
<title>S2_SrpR&#45;&gt;YFP</title>
<path fill="none" stroke="#000000" d="M486.0213,-81C486.0213,-81 511.8547,-81 511.8547,-81"/>
<polygon fill="#000000" stroke="#000000" points="511.8548,-84.5001 521.8547,-81 511.8547,-77.5001 511.8548,-84.5001"/>
</g>
<!-- J2_DigiJ -->
<g id="node6" class="node">
<title>J2_DigiJ</title>
<image xlink:href="demo_FixedGatesDigital0xFE_005_A000_xfer_model_J2_DigiJ.png" width="72px" height="72px" preserveAspectRatio="xMinYMin meet" x="306" y="-117"/>
</g>
<!-- J2_DigiJ&#45;&gt;S2_SrpR -->
<g id="edge2" class="edge">
<title>J2_DigiJ&#45;&gt;S2_SrpR</title>
<path fill="none" stroke="#000000" d="M378.2629,-81C378.2629,-81 403.649,-81 403.649,-81"/>
<polygon fill="#000000" stroke="#000000" points="403.649,-84.5001 413.649,-81 403.649,-77.5001 403.649,-84.5001"/>
</g>
<!-- P3_PhlF -->
<g id="node7" class="node">
<title>P3_PhlF</title>
<image xlink:href="demo_FixedGatesDigital0xFE_005_A000_xfer_model_P3_PhlF.png" width="72px" height="72px" preserveAspectRatio="xMinYMin meet" x="198" y="-162"/>
</g>
<!-- P3_PhlF&#45;&gt;J2_DigiJ -->
<g id="edge3" class="edge">
<title>P3_PhlF&#45;&gt;J2_DigiJ</title>
<path fill="none" stroke="#000000" d="M270.2629,-103.5C270.2629,-103.5 295.649,-103.5 295.649,-103.5"/>
<polygon fill="#000000" stroke="#000000" points="295.649,-107.0001 305.649,-103.5 295.649,-100.0001 295.649,-107.0001"/>
</g>
<!-- P3_PhlF&#45;&gt;P3_PhlF -->
<g id="edge5" class="edge">
<title>P3_PhlF&#45;&gt;P3_PhlF</title>
<path fill="none" stroke="#000000" d="M197.9812,-159C188.0758,-159 180,-159 180,-159 180,-159 180,-166.5 180,-166.5 180,-166.5 288,-166.5 288,-166.5 288,-166.5 288,-139.5 288,-139.5 288,-139.5 280.0188,-139.5 280.0188,-139.5"/>
<polygon fill="#000000" stroke="#000000" points="280.0188,-136.0001 270.0188,-139.5 280.0187,-143.0001 280.0188,-136.0001"/>
</g>
<!-- QS1_DigiJQ&#45;&gt;J2_DigiJ -->
<g id="edge4" class="edge">
<title>QS1_DigiJQ&#45;&gt;J2_DigiJ</title>
<path fill="none" stroke="#000000" d="M270.2629,-58.5C270.2629,-58.5 295.649,-58.5 295.649,-58.5"/>
<polygon fill="#000000" stroke="#000000" points="295.649,-62.0001 305.649,-58.5 295.649,-55.0001 295.649,-62.0001"/>
</g>
<!-- P1_PhlF&#45;&gt;P3_PhlF -->
<g id="edge7" class="edge">
<title>P1_PhlF&#45;&gt;P3_PhlF</title>
<path fill="none" stroke="#000000" d="M126,-170.7513C126,-162.4443 126,-156 126,-156 126,-156 187.7371,-156 187.7371,-156"/>
<polygon fill="#000000" stroke="#000000" points="187.7372,-159.5001 197.7371,-156 187.7371,-152.5001 187.7372,-159.5001"/>
</g>
<!-- Q1_QacR&#45;&gt;P3_PhlF -->
<g id="edge8" class="edge">
<title>Q1_QacR&#45;&gt;P3_PhlF</title>
<path fill="none" stroke="#000000" d="M162.2629,-121.5C162.2629,-121.5 187.649,-121.5 187.649,-121.5"/>
<polygon fill="#000000" stroke="#000000" points="187.649,-125.0001 197.649,-121.5 187.649,-118.0001 187.649,-125.0001"/>
</g>
</g>
</svg>
