<?xml version="1.0" encoding="UTF-8" standalone="no"?>
<!DOCTYPE svg PUBLIC "-//W3C//DTD SVG 1.1//EN"
 "http://www.w3.org/Graphics/SVG/1.1/DTD/svg11.dtd">
<!-- Generated by graphviz version 2.40.1 (20161225.0304)
 -->
<!-- Title: %3 Pages: 1 -->
<svg width="762pt" height="125pt"
 viewBox="0.00 0.00 761.79 125.00" xmlns="http://www.w3.org/2000/svg" xmlns:xlink="http://www.w3.org/1999/xlink">
<g id="graph0" class="graph" transform="scale(1 1) rotate(0) translate(4 121)">
<title>%3</title>
<polygon fill="#ffffff" stroke="transparent" points="-4,4 -4,-121 757.79,-121 757.79,4 -4,4"/>
<!-- out1 -->
<g id="node1" class="node">
<title>out1</title>
<text text-anchor="middle" x="719.3281" y="-74.8" font-family="Times,serif" font-size="14.00" fill="#000000">out1</text>
<text text-anchor="middle" x="719.3281" y="-60.8" font-family="Times,serif" font-size="14.00" fill="#000000">11111110</text>
</g>
<!-- in3 -->
<g id="node2" class="node">
<title>in3</title>
<text text-anchor="middle" x="44.4321" y="-20.8" font-family="Times,serif" font-size="14.00" fill="#000000">INPUT in3 0</text>
<text text-anchor="middle" x="44.4321" y="-6.8" font-family="Times,serif" font-size="14.00" fill="#000000">01010101</text>
</g>
<!-- g6 -->
<g id="node6" class="node">
<title>g6</title>
<polygon fill="#ffffff" stroke="#000000" points="197.1553,-36 125.0995,-36 125.0995,0 197.1553,0 197.1553,-36"/>
<text text-anchor="middle" x="161.1274" y="-20.8" font-family="Times,serif" font-size="14.00" fill="#000000">NOT g6 1</text>
<text text-anchor="middle" x="161.1274" y="-6.8" font-family="Times,serif" font-size="14.00" fill="#000000">10101010</text>
</g>
<!-- in3&#45;&gt;g6 -->
<g id="edge9" class="edge">
<title>in3&#45;&gt;g6</title>
<path fill="none" stroke="#000000" d="M88.8825,-18C88.8825,-18 114.7592,-18 114.7592,-18"/>
<polygon fill="#000000" stroke="#000000" points="114.7592,-21.5001 124.7592,-18 114.7592,-14.5001 114.7592,-21.5001"/>
</g>
<!-- in2 -->
<g id="node3" class="node">
<title>in2</title>
<text text-anchor="middle" x="44.4321" y="-74.8" font-family="Times,serif" font-size="14.00" fill="#000000">INPUT in2 0</text>
<text text-anchor="middle" x="44.4321" y="-60.8" font-family="Times,serif" font-size="14.00" fill="#000000">00110011</text>
</g>
<!-- g7 -->
<g id="node5" class="node">
<title>g7</title>
<polygon fill="#ffffff" stroke="#000000" points="197.1553,-90 125.0995,-90 125.0995,-54 197.1553,-54 197.1553,-90"/>
<text text-anchor="middle" x="161.1274" y="-74.8" font-family="Times,serif" font-size="14.00" fill="#000000">NOT g7 1</text>
<text text-anchor="middle" x="161.1274" y="-60.8" font-family="Times,serif" font-size="14.00" fill="#000000">11001100</text>
</g>
<!-- in2&#45;&gt;g7 -->
<g id="edge10" class="edge">
<title>in2&#45;&gt;g7</title>
<path fill="none" stroke="#000000" d="M88.8825,-72C88.8825,-72 114.7592,-72 114.7592,-72"/>
<polygon fill="#000000" stroke="#000000" points="114.7592,-75.5001 124.7592,-72 114.7592,-68.5001 114.7592,-75.5001"/>
</g>
<!-- in1 -->
<g id="node4" class="node">
<title>in1</title>
<text text-anchor="middle" x="277.8228" y="-101.8" font-family="Times,serif" font-size="14.00" fill="#000000">INPUT in1 0</text>
<text text-anchor="middle" x="277.8228" y="-87.8" font-family="Times,serif" font-size="14.00" fill="#000000">00001111</text>
</g>
<!-- g4 -->
<g id="node8" class="node">
<title>g4</title>
<polygon fill="#ffffff" stroke="#000000" points="430.546,-117 358.4902,-117 358.4902,-81 430.546,-81 430.546,-117"/>
<text text-anchor="middle" x="394.5181" y="-101.8" font-family="Times,serif" font-size="14.00" fill="#000000">NOT g4 1</text>
<text text-anchor="middle" x="394.5181" y="-87.8" font-family="Times,serif" font-size="14.00" fill="#000000">11110000</text>
</g>
<!-- in1&#45;&gt;g4 -->
<g id="edge6" class="edge">
<title>in1&#45;&gt;g4</title>
<path fill="none" stroke="#000000" d="M322.2731,-99C322.2731,-99 348.1498,-99 348.1498,-99"/>
<polygon fill="#000000" stroke="#000000" points="348.1499,-102.5001 358.1498,-99 348.1498,-95.5001 348.1499,-102.5001"/>
</g>
<!-- g5 -->
<g id="node7" class="node">
<title>g5</title>
<polygon fill="#ffffff" stroke="#000000" points="314.3827,-63 241.2628,-63 241.2628,-27 314.3827,-27 314.3827,-63"/>
<text text-anchor="middle" x="277.8228" y="-47.8" font-family="Times,serif" font-size="14.00" fill="#000000">NOR g5 2</text>
<text text-anchor="middle" x="277.8228" y="-33.8" font-family="Times,serif" font-size="14.00" fill="#000000">00010001</text>
</g>
<!-- g7&#45;&gt;g5 -->
<g id="edge8" class="edge">
<title>g7&#45;&gt;g5</title>
<path fill="none" stroke="#000000" d="M197.4109,-58.5C197.4109,-58.5 231.1598,-58.5 231.1598,-58.5"/>
<polygon fill="#000000" stroke="#000000" points="231.1599,-62.0001 241.1598,-58.5 231.1598,-55.0001 231.1599,-62.0001"/>
</g>
<!-- g6&#45;&gt;g5 -->
<g id="edge7" class="edge">
<title>g6&#45;&gt;g5</title>
<path fill="none" stroke="#000000" d="M197.4109,-31.5C197.4109,-31.5 231.1598,-31.5 231.1598,-31.5"/>
<polygon fill="#000000" stroke="#000000" points="231.1599,-35.0001 241.1598,-31.5 231.1598,-28.0001 231.1599,-35.0001"/>
</g>
<!-- g3 -->
<g id="node9" class="node">
<title>g3</title>
<polygon fill="#ffffff" stroke="#000000" points="430.546,-63 358.4902,-63 358.4902,-27 430.546,-27 430.546,-63"/>
<text text-anchor="middle" x="394.5181" y="-47.8" font-family="Times,serif" font-size="14.00" fill="#000000">NOT g3 3</text>
<text text-anchor="middle" x="394.5181" y="-33.8" font-family="Times,serif" font-size="14.00" fill="#000000">11101110</text>
</g>
<!-- g5&#45;&gt;g3 -->
<g id="edge5" class="edge">
<title>g5&#45;&gt;g3</title>
<path fill="none" stroke="#000000" d="M314.4257,-45C314.4257,-45 348.4452,-45 348.4452,-45"/>
<polygon fill="#000000" stroke="#000000" points="348.4452,-48.5001 358.4452,-45 348.4451,-41.5001 348.4452,-48.5001"/>
</g>
<!-- g2 -->
<g id="node10" class="node">
<title>g2</title>
<polygon fill="#ffffff" stroke="#000000" points="540.1205,-90 467.0006,-90 467.0006,-54 540.1205,-54 540.1205,-90"/>
<text text-anchor="middle" x="503.5605" y="-74.8" font-family="Times,serif" font-size="14.00" fill="#000000">NOR g2 4</text>
<text text-anchor="middle" x="503.5605" y="-60.8" font-family="Times,serif" font-size="14.00" fill="#000000">00000001</text>
</g>
<!-- g4&#45;&gt;g2 -->
<g id="edge4" class="edge">
<title>g4&#45;&gt;g2</title>
<path fill="none" stroke="#000000" d="M430.8276,-85.5C430.8276,-85.5 456.6651,-85.5 456.6651,-85.5"/>
<polygon fill="#000000" stroke="#000000" points="456.6652,-89.0001 466.6651,-85.5 456.6651,-82.0001 456.6652,-89.0001"/>
</g>
<!-- g3&#45;&gt;g2 -->
<g id="edge3" class="edge">
<title>g3&#45;&gt;g2</title>
<path fill="none" stroke="#000000" d="M430.8276,-58.5C430.8276,-58.5 456.6651,-58.5 456.6651,-58.5"/>
<polygon fill="#000000" stroke="#000000" points="456.6652,-62.0001 466.6651,-58.5 456.6651,-55.0001 456.6652,-62.0001"/>
</g>
<!-- g1 -->
<g id="node11" class="node">
<title>g1</title>
<polygon fill="#ffffff" stroke="#000000" points="648.6309,-90 576.5751,-90 576.5751,-54 648.6309,-54 648.6309,-90"/>
<text text-anchor="middle" x="612.603" y="-74.8" font-family="Times,serif" font-size="14.00" fill="#000000">NOT g1 5</text>
<text text-anchor="middle" x="612.603" y="-60.8" font-family="Times,serif" font-size="14.00" fill="#000000">11111110</text>
</g>
<!-- g2&#45;&gt;g1 -->
<g id="edge2" class="edge">
<title>g2&#45;&gt;g1</title>
<path fill="none" stroke="#000000" d="M540.1735,-72C540.1735,-72 566.2721,-72 566.2721,-72"/>
<polygon fill="#000000" stroke="#000000" points="566.2722,-75.5001 576.2721,-72 566.2721,-68.5001 566.2722,-75.5001"/>
</g>
<!-- g1&#45;&gt;out1 -->
<g id="edge1" class="edge">
<title>g1&#45;&gt;out1</title>
<path fill="none" stroke="#000000" d="M648.7353,-72C648.7353,-72 674.6775,-72 674.6775,-72"/>
<polygon fill="#000000" stroke="#000000" points="674.6776,-75.5001 684.6775,-72 674.6775,-68.5001 674.6776,-75.5001"/>
</g>
</g>
</svg>
