<?xml version="1.0" encoding="UTF-8" standalone="no"?>
<!DOCTYPE svg PUBLIC "-//W3C//DTD SVG 1.1//EN"
 "http://www.w3.org/Graphics/SVG/1.1/DTD/svg11.dtd">
<!-- Generated by graphviz version 2.40.1 (20161225.0304)
 -->
<!-- Title: %3 Pages: 1 -->
<svg width="695pt" height="160pt"
 viewBox="0.00 0.00 694.88 160.00" xmlns="http://www.w3.org/2000/svg" xmlns:xlink="http://www.w3.org/1999/xlink">
<g id="graph0" class="graph" transform="scale(1 1) rotate(0) translate(4 156)">
<title>%3</title>
<polygon fill="#ffffff" stroke="transparent" points="-4,4 -4,-156 690.875,-156 690.875,4 -4,4"/>
<!-- YFP -->
<g id="node1" class="node">
<title>YFP</title>
<text text-anchor="middle" x="652.4131" y="-68.8" font-family="Times,serif" font-size="14.00" fill="#000000">YFP</text>
<text text-anchor="middle" x="652.4131" y="-54.8" font-family="Times,serif" font-size="14.00" fill="#000000"> &#160;&#160;50.73</text>
<text text-anchor="middle" x="652.4131" y="-40.8" font-family="Times,serif" font-size="14.00" fill="#000000">11111110</text>
</g>
<!-- pTac -->
<g id="node2" class="node">
<title>pTac</title>
<text text-anchor="middle" x="53.7666" y="-136.8" font-family="Times,serif" font-size="14.00" fill="#000000">INPUT pTac 0</text>
<text text-anchor="middle" x="53.7666" y="-122.8" font-family="Times,serif" font-size="14.00" fill="#000000"> &#160;823.53</text>
<text text-anchor="middle" x="53.7666" y="-108.8" font-family="Times,serif" font-size="14.00" fill="#000000">01010101</text>
</g>
<!-- E1_BetI -->
<g id="node7" class="node">
<title>E1_BetI</title>
<polygon fill="#ffffff" stroke="#000000" points="257.3644,-152 152.0008,-152 152.0008,-102 257.3644,-102 257.3644,-152"/>
<text text-anchor="middle" x="204.6826" y="-136.8" font-family="Times,serif" font-size="14.00" fill="#000000">NOT E1_BetI 1</text>
<text text-anchor="middle" x="204.6826" y="-122.8" font-family="Times,serif" font-size="14.00" fill="#000000"> &#160;&#160;35.61</text>
<text text-anchor="middle" x="204.6826" y="-108.8" font-family="Times,serif" font-size="14.00" fill="#000000">10101010</text>
</g>
<!-- pTac&#45;&gt;E1_BetI -->
<g id="edge6" class="edge">
<title>pTac&#45;&gt;E1_BetI</title>
<path fill="none" stroke="#000000" d="M102.7647,-127C102.7647,-127 142.0278,-127 142.0278,-127"/>
<polygon fill="#000000" stroke="#000000" points="142.0278,-130.5001 152.0278,-127 142.0278,-123.5001 142.0278,-130.5001"/>
</g>
<!-- pTet -->
<g id="node3" class="node">
<title>pTet</title>
<text text-anchor="middle" x="365.8423" y="-34.8" font-family="Times,serif" font-size="14.00" fill="#000000">INPUT pTet 0</text>
<text text-anchor="middle" x="365.8423" y="-20.8" font-family="Times,serif" font-size="14.00" fill="#000000"> 3384.62</text>
<text text-anchor="middle" x="365.8423" y="-6.8" font-family="Times,serif" font-size="14.00" fill="#000000">00110011</text>
</g>
<!-- A1_AmtR -->
<g id="node9" class="node">
<title>A1_AmtR</title>
<polygon fill="#ffffff" stroke="#000000" points="582.0005,-50 465.8032,-50 465.8032,0 582.0005,0 582.0005,-50"/>
<text text-anchor="middle" x="523.9019" y="-34.8" font-family="Times,serif" font-size="14.00" fill="#000000">NOT A1_AmtR 1</text>
<text text-anchor="middle" x="523.9019" y="-20.8" font-family="Times,serif" font-size="14.00" fill="#000000"> &#160;&#160;58.41</text>
<text text-anchor="middle" x="523.9019" y="-6.8" font-family="Times,serif" font-size="14.00" fill="#000000">11001100</text>
</g>
<!-- pTet&#45;&gt;A1_AmtR -->
<g id="edge8" class="edge">
<title>pTet&#45;&gt;A1_AmtR</title>
<path fill="none" stroke="#000000" d="M413.6943,-25C413.6943,-25 455.6111,-25 455.6111,-25"/>
<polygon fill="#000000" stroke="#000000" points="455.6111,-28.5001 465.6111,-25 455.611,-21.5001 455.6111,-28.5001"/>
</g>
<!-- pBAD -->
<g id="node4" class="node">
<title>pBAD</title>
<text text-anchor="middle" x="53.7666" y="-68.8" font-family="Times,serif" font-size="14.00" fill="#000000">INPUT pBAD 0</text>
<text text-anchor="middle" x="53.7666" y="-54.8" font-family="Times,serif" font-size="14.00" fill="#000000"> &#160;304.88</text>
<text text-anchor="middle" x="53.7666" y="-40.8" font-family="Times,serif" font-size="14.00" fill="#000000">00001111</text>
</g>
<!-- H1_HlyIIR -->
<g id="node8" class="node">
<title>H1_HlyIIR</title>
<polygon fill="#ffffff" stroke="#000000" points="265.9818,-84 143.3834,-84 143.3834,-34 265.9818,-34 265.9818,-84"/>
<text text-anchor="middle" x="204.6826" y="-68.8" font-family="Times,serif" font-size="14.00" fill="#000000">NOT H1_HlyIIR 1</text>
<text text-anchor="middle" x="204.6826" y="-54.8" font-family="Times,serif" font-size="14.00" fill="#000000"> &#160;&#160;34.24</text>
<text text-anchor="middle" x="204.6826" y="-40.8" font-family="Times,serif" font-size="14.00" fill="#000000">11110000</text>
</g>
<!-- pBAD&#45;&gt;H1_HlyIIR -->
<g id="edge7" class="edge">
<title>pBAD&#45;&gt;H1_HlyIIR</title>
<path fill="none" stroke="#000000" d="M107.3989,-59C107.3989,-59 133.5067,-59 133.5067,-59"/>
<polygon fill="#000000" stroke="#000000" points="133.5067,-62.5001 143.5067,-59 133.5066,-55.5001 133.5067,-62.5001"/>
</g>
<!-- P1_PhlF -->
<g id="node5" class="node">
<title>P1_PhlF</title>
<polygon fill="#ffffff" stroke="#000000" points="577.1765,-118 470.6272,-118 470.6272,-68 577.1765,-68 577.1765,-118"/>
<text text-anchor="middle" x="523.9019" y="-102.8" font-family="Times,serif" font-size="14.00" fill="#000000">NOT P1_PhlF 3</text>
<text text-anchor="middle" x="523.9019" y="-88.8" font-family="Times,serif" font-size="14.00" fill="#000000"> &#160;383.85</text>
<text text-anchor="middle" x="523.9019" y="-74.8" font-family="Times,serif" font-size="14.00" fill="#000000">11111010</text>
</g>
<!-- P1_PhlF&#45;&gt;YFP -->
<g id="edge1" class="edge">
<title>P1_PhlF&#45;&gt;YFP</title>
<path fill="none" stroke="#000000" d="M577.2857,-76C577.2857,-76 607.7089,-76 607.7089,-76"/>
<polygon fill="#000000" stroke="#000000" points="607.7089,-79.5001 617.7089,-76 607.7088,-72.5001 607.7089,-79.5001"/>
</g>
<!-- B3_BM3R1 -->
<g id="node6" class="node">
<title>B3_BM3R1</title>
<polygon fill="#ffffff" stroke="#000000" points="429.8628,-118 301.8218,-118 301.8218,-68 429.8628,-68 429.8628,-118"/>
<text text-anchor="middle" x="365.8423" y="-102.8" font-family="Times,serif" font-size="14.00" fill="#000000">NOR B3_BM3R1 2</text>
<text text-anchor="middle" x="365.8423" y="-88.8" font-family="Times,serif" font-size="14.00" fill="#000000"> &#160;&#160;60.60</text>
<text text-anchor="middle" x="365.8423" y="-74.8" font-family="Times,serif" font-size="14.00" fill="#000000">00000101</text>
</g>
<!-- B3_BM3R1&#45;&gt;P1_PhlF -->
<g id="edge3" class="edge">
<title>B3_BM3R1&#45;&gt;P1_PhlF</title>
<path fill="none" stroke="#000000" d="M430.1312,-93C430.1312,-93 460.2798,-93 460.2798,-93"/>
<polygon fill="#000000" stroke="#000000" points="460.2799,-96.5001 470.2798,-93 460.2798,-89.5001 460.2799,-96.5001"/>
</g>
<!-- E1_BetI&#45;&gt;B3_BM3R1 -->
<g id="edge4" class="edge">
<title>E1_BetI&#45;&gt;B3_BM3R1</title>
<path fill="none" stroke="#000000" d="M257.4523,-110C257.4523,-110 291.7064,-110 291.7064,-110"/>
<polygon fill="#000000" stroke="#000000" points="291.7064,-113.5001 301.7064,-110 291.7063,-106.5001 291.7064,-113.5001"/>
</g>
<!-- H1_HlyIIR&#45;&gt;B3_BM3R1 -->
<g id="edge5" class="edge">
<title>H1_HlyIIR&#45;&gt;B3_BM3R1</title>
<path fill="none" stroke="#000000" d="M266.0699,-76C266.0699,-76 291.6801,-76 291.6801,-76"/>
<polygon fill="#000000" stroke="#000000" points="291.6802,-79.5001 301.6801,-76 291.6801,-72.5001 291.6802,-79.5001"/>
</g>
<!-- A1_AmtR&#45;&gt;YFP -->
<g id="edge2" class="edge">
<title>A1_AmtR&#45;&gt;YFP</title>
<path fill="none" stroke="#000000" d="M582.1414,-42C582.1414,-42 607.8899,-42 607.8899,-42"/>
<polygon fill="#000000" stroke="#000000" points="607.89,-45.5001 617.8899,-42 607.8899,-38.5001 607.89,-45.5001"/>
</g>
</g>
</svg>
