<?xml version="1.0" encoding="UTF-8" standalone="no"?>
<!DOCTYPE svg PUBLIC "-//W3C//DTD SVG 1.1//EN"
 "http://www.w3.org/Graphics/SVG/1.1/DTD/svg11.dtd">
<!-- Generated by graphviz version 2.40.1 (20161225.0304)
 -->
<!-- Title: %3 Pages: 1 -->
<svg width="476pt" height="215pt"
 viewBox="0.00 0.00 476.00 215.00" xmlns="http://www.w3.org/2000/svg" xmlns:xlink="http://www.w3.org/1999/xlink">
<g id="graph0" class="graph" transform="scale(1 1) rotate(0) translate(4 211)">
<title>%3</title>
<polygon fill="#ffffff" stroke="transparent" points="-4,4 -4,-211 472,-211 472,4 -4,4"/>
<!-- YFP -->
<g id="node1" class="node">
<title>YFP</title>
<text text-anchor="middle" x="441" y="-76.8" font-family="Times,serif" font-size="14.00" fill="#000000">YFP</text>
</g>
<!-- pTac -->
<g id="node2" class="node">
<title>pTac</title>
<text text-anchor="middle" x="27" y="-166.8" font-family="Times,serif" font-size="14.00" fill="#000000">pTac</text>
</g>
<!-- E1_BetI -->
<g id="node7" class="node">
<title>E1_BetI</title>
<image xlink:href="demo_abstract0xFE_002_A000_xfer_model_E1_BetI.png" width="72px" height="72px" preserveAspectRatio="xMinYMin meet" x="90" y="-207"/>
</g>
<!-- pTac&#45;&gt;E1_BetI -->
<g id="edge6" class="edge">
<title>pTac&#45;&gt;E1_BetI</title>
<path fill="none" stroke="#000000" d="M54.0522,-171C54.0522,-171 79.6982,-171 79.6982,-171"/>
<polygon fill="#000000" stroke="#000000" points="79.6982,-174.5001 89.6982,-171 79.6982,-167.5001 79.6982,-174.5001"/>
</g>
<!-- pTet -->
<g id="node3" class="node">
<title>pTet</title>
<text text-anchor="middle" x="234" y="-31.8" font-family="Times,serif" font-size="14.00" fill="#000000">pTet</text>
</g>
<!-- A1_AmtR -->
<g id="node9" class="node">
<title>A1_AmtR</title>
<image xlink:href="demo_abstract0xFE_002_A000_xfer_model_A1_AmtR.png" width="72px" height="72px" preserveAspectRatio="xMinYMin meet" x="306" y="-72"/>
</g>
<!-- pTet&#45;&gt;A1_AmtR -->
<g id="edge8" class="edge">
<title>pTet&#45;&gt;A1_AmtR</title>
<path fill="none" stroke="#000000" d="M261.253,-36C261.253,-36 295.7747,-36 295.7747,-36"/>
<polygon fill="#000000" stroke="#000000" points="295.7747,-39.5001 305.7747,-36 295.7747,-32.5001 295.7747,-39.5001"/>
</g>
<!-- pBAD -->
<g id="node4" class="node">
<title>pBAD</title>
<text text-anchor="middle" x="27" y="-76.8" font-family="Times,serif" font-size="14.00" fill="#000000">pBAD</text>
</g>
<!-- H1_HlyIIR -->
<g id="node8" class="node">
<title>H1_HlyIIR</title>
<image xlink:href="demo_abstract0xFE_002_A000_xfer_model_H1_HlyIIR.png" width="72px" height="72px" preserveAspectRatio="xMinYMin meet" x="90" y="-117"/>
</g>
<!-- pBAD&#45;&gt;H1_HlyIIR -->
<g id="edge7" class="edge">
<title>pBAD&#45;&gt;H1_HlyIIR</title>
<path fill="none" stroke="#000000" d="M54.0522,-81C54.0522,-81 79.6982,-81 79.6982,-81"/>
<polygon fill="#000000" stroke="#000000" points="79.6982,-84.5001 89.6982,-81 79.6982,-77.5001 79.6982,-84.5001"/>
</g>
<!-- P1_PhlF -->
<g id="node5" class="node">
<title>P1_PhlF</title>
<image xlink:href="demo_abstract0xFE_002_A000_xfer_model_P1_PhlF.png" width="72px" height="72px" preserveAspectRatio="xMinYMin meet" x="306" y="-162"/>
</g>
<!-- P1_PhlF&#45;&gt;YFP -->
<g id="edge1" class="edge">
<title>P1_PhlF&#45;&gt;YFP</title>
<path fill="none" stroke="#000000" d="M378.0213,-94.5C378.0213,-94.5 403.8547,-94.5 403.8547,-94.5"/>
<polygon fill="#000000" stroke="#000000" points="403.8548,-98.0001 413.8547,-94.5 403.8547,-91.0001 403.8548,-98.0001"/>
</g>
<!-- B3_BM3R1 -->
<g id="node6" class="node">
<title>B3_BM3R1</title>
<image xlink:href="demo_abstract0xFE_002_A000_xfer_model_B3_BM3R1.png" width="72px" height="72px" preserveAspectRatio="xMinYMin meet" x="198" y="-162"/>
</g>
<!-- B3_BM3R1&#45;&gt;P1_PhlF -->
<g id="edge3" class="edge">
<title>B3_BM3R1&#45;&gt;P1_PhlF</title>
<path fill="none" stroke="#000000" d="M270.2629,-126C270.2629,-126 295.649,-126 295.649,-126"/>
<polygon fill="#000000" stroke="#000000" points="295.649,-129.5001 305.649,-126 295.649,-122.5001 295.649,-129.5001"/>
</g>
<!-- E1_BetI&#45;&gt;B3_BM3R1 -->
<g id="edge4" class="edge">
<title>E1_BetI&#45;&gt;B3_BM3R1</title>
<path fill="none" stroke="#000000" d="M162.2629,-148.5C162.2629,-148.5 187.649,-148.5 187.649,-148.5"/>
<polygon fill="#000000" stroke="#000000" points="187.649,-152.0001 197.649,-148.5 187.649,-145.0001 187.649,-152.0001"/>
</g>
<!-- H1_HlyIIR&#45;&gt;B3_BM3R1 -->
<g id="edge5" class="edge">
<title>H1_HlyIIR&#45;&gt;B3_BM3R1</title>
<path fill="none" stroke="#000000" d="M162.2629,-103.5C162.2629,-103.5 187.649,-103.5 187.649,-103.5"/>
<polygon fill="#000000" stroke="#000000" points="187.649,-107.0001 197.649,-103.5 187.649,-100.0001 187.649,-107.0001"/>
</g>
<!-- A1_AmtR&#45;&gt;YFP -->
<g id="edge2" class="edge">
<title>A1_AmtR&#45;&gt;YFP</title>
<path fill="none" stroke="#000000" d="M378.0213,-67.5C378.0213,-67.5 403.8547,-67.5 403.8547,-67.5"/>
<polygon fill="#000000" stroke="#000000" points="403.8548,-71.0001 413.8547,-67.5 403.8547,-64.0001 403.8548,-71.0001"/>
</g>
</g>
</svg>
