<?xml version="1.0" encoding="UTF-8" standalone="no"?>
<!DOCTYPE svg PUBLIC "-//W3C//DTD SVG 1.1//EN"
 "http://www.w3.org/Graphics/SVG/1.1/DTD/svg11.dtd">
<!-- Generated by graphviz version 2.40.1 (20161225.0304)
 -->
<!-- Title: %3 Pages: 1 -->
<svg width="816pt" height="194pt"
 viewBox="0.00 0.00 816.40 194.00" xmlns="http://www.w3.org/2000/svg" xmlns:xlink="http://www.w3.org/1999/xlink">
<g id="graph0" class="graph" transform="scale(1 1) rotate(0) translate(4 190)">
<title>%3</title>
<polygon fill="#ffffff" stroke="transparent" points="-4,4 -4,-190 812.4033,-190 812.4033,4 -4,4"/>
<!-- YFP -->
<g id="node1" class="node">
<title>YFP</title>
<text text-anchor="middle" x="773.9414" y="-68.8" font-family="Times,serif" font-size="14.00" fill="#000000">YFP</text>
<text text-anchor="middle" x="773.9414" y="-54.8" font-family="Times,serif" font-size="14.00" fill="#000000"> &#160;700.00</text>
<text text-anchor="middle" x="773.9414" y="-40.8" font-family="Times,serif" font-size="14.00" fill="#000000">11111110</text>
</g>
<!-- pTac -->
<g id="node2" class="node">
<title>pTac</title>
<text text-anchor="middle" x="188.9087" y="-170.8" font-family="Times,serif" font-size="14.00" fill="#000000">INPUT pTac 0</text>
<text text-anchor="middle" x="188.9087" y="-156.8" font-family="Times,serif" font-size="14.00" fill="#000000"> &#160;823.53</text>
<text text-anchor="middle" x="188.9087" y="-142.8" font-family="Times,serif" font-size="14.00" fill="#000000">01010101</text>
</g>
<!-- P3_PhlF -->
<g id="node7" class="node">
<title>P3_PhlF</title>
<polygon fill="#ffffff" stroke="#000000" points="389.5959,-118 283.0466,-118 283.0466,-68 389.5959,-68 389.5959,-118"/>
<text text-anchor="middle" x="336.3213" y="-102.8" font-family="Times,serif" font-size="14.00" fill="#000000">NOT P3_PhlF 1</text>
<text text-anchor="middle" x="336.3213" y="-88.8" font-family="Times,serif" font-size="14.00" fill="#000000"> &#160;336.85</text>
<text text-anchor="middle" x="336.3213" y="-74.8" font-family="Times,serif" font-size="14.00" fill="#000000">10101010</text>
</g>
<!-- pTac&#45;&gt;P3_PhlF -->
<g id="edge9" class="edge">
<title>pTac&#45;&gt;P3_PhlF</title>
<path fill="none" stroke="#000000" d="M238.0223,-161C280.9285,-161 336.4033,-161 336.4033,-161 336.4033,-161 336.4033,-128.3207 336.4033,-128.3207"/>
<polygon fill="#000000" stroke="#000000" points="339.9034,-128.3207 336.4033,-118.3207 332.9034,-128.3207 339.9034,-128.3207"/>
</g>
<!-- pTet -->
<g id="node3" class="node">
<title>pTet</title>
<text text-anchor="middle" x="47.8262" y="-102.8" font-family="Times,serif" font-size="14.00" fill="#000000">INPUT pTet 0</text>
<text text-anchor="middle" x="47.8262" y="-88.8" font-family="Times,serif" font-size="14.00" fill="#000000"> 3384.62</text>
<text text-anchor="middle" x="47.8262" y="-74.8" font-family="Times,serif" font-size="14.00" fill="#000000">00110011</text>
</g>
<!-- Q1_QacR -->
<g id="node9" class="node">
<title>Q1_QacR</title>
<polygon fill="#ffffff" stroke="#000000" points="245.9224,-118 131.895,-118 131.895,-68 245.9224,-68 245.9224,-118"/>
<text text-anchor="middle" x="188.9087" y="-102.8" font-family="Times,serif" font-size="14.00" fill="#000000">NOT Q1_QacR 1</text>
<text text-anchor="middle" x="188.9087" y="-88.8" font-family="Times,serif" font-size="14.00" fill="#000000"> &#160;239.67</text>
<text text-anchor="middle" x="188.9087" y="-74.8" font-family="Times,serif" font-size="14.00" fill="#000000">11001100</text>
</g>
<!-- pTet&#45;&gt;Q1_QacR -->
<g id="edge10" class="edge">
<title>pTet&#45;&gt;Q1_QacR</title>
<path fill="none" stroke="#000000" d="M95.5903,-93C95.5903,-93 121.4233,-93 121.4233,-93"/>
<polygon fill="#000000" stroke="#000000" points="121.4233,-96.5001 131.4233,-93 121.4233,-89.5001 121.4233,-96.5001"/>
</g>
<!-- pBAD -->
<g id="node4" class="node">
<title>pBAD</title>
<text text-anchor="middle" x="188.9087" y="-34.8" font-family="Times,serif" font-size="14.00" fill="#000000">INPUT pBAD 0</text>
<text text-anchor="middle" x="188.9087" y="-20.8" font-family="Times,serif" font-size="14.00" fill="#000000"> &#160;304.88</text>
<text text-anchor="middle" x="188.9087" y="-6.8" font-family="Times,serif" font-size="14.00" fill="#000000">00001111</text>
</g>
<!-- J1_DigiJ -->
<g id="node8" class="node">
<title>J1_DigiJ</title>
<polygon fill="#ffffff" stroke="#000000" points="390.6342,-50 282.0083,-50 282.0083,0 390.6342,0 390.6342,-50"/>
<text text-anchor="middle" x="336.3213" y="-34.8" font-family="Times,serif" font-size="14.00" fill="#000000">NOT J1_DigiJ 1</text>
<text text-anchor="middle" x="336.3213" y="-20.8" font-family="Times,serif" font-size="14.00" fill="#000000">124452.05</text>
<text text-anchor="middle" x="336.3213" y="-6.8" font-family="Times,serif" font-size="14.00" fill="#000000">11110000</text>
</g>
<!-- pBAD&#45;&gt;J1_DigiJ -->
<g id="edge6" class="edge">
<title>pBAD&#45;&gt;J1_DigiJ</title>
<path fill="none" stroke="#000000" d="M242.545,-25C242.545,-25 271.9831,-25 271.9831,-25"/>
<polygon fill="#000000" stroke="#000000" points="271.9832,-28.5001 281.9831,-25 271.9831,-21.5001 271.9832,-28.5001"/>
</g>
<!-- S2_SrpR -->
<g id="node5" class="node">
<title>S2_SrpR</title>
<polygon fill="#ffffff" stroke="#000000" points="703.5289,-84 594.3315,-84 594.3315,-34 703.5289,-34 703.5289,-84"/>
<text text-anchor="middle" x="648.9302" y="-68.8" font-family="Times,serif" font-size="14.00" fill="#000000">NOT S2_SrpR 5</text>
<text text-anchor="middle" x="648.9302" y="-54.8" font-family="Times,serif" font-size="14.00" fill="#000000"> &#160;700.00</text>
<text text-anchor="middle" x="648.9302" y="-40.8" font-family="Times,serif" font-size="14.00" fill="#000000">11111110</text>
</g>
<!-- S2_SrpR&#45;&gt;YFP -->
<g id="edge1" class="edge">
<title>S2_SrpR&#45;&gt;YFP</title>
<path fill="none" stroke="#000000" d="M703.7619,-59C703.7619,-59 729.3004,-59 729.3004,-59"/>
<polygon fill="#000000" stroke="#000000" points="729.3004,-62.5001 739.3004,-59 729.3003,-55.5001 729.3004,-62.5001"/>
</g>
<!-- QS2_DigiJQ -->
<g id="node6" class="node">
<title>QS2_DigiJQ</title>
<polygon fill="#ffffff" stroke="#000000" points="558.3326,-84 426.5258,-84 426.5258,-34 558.3326,-34 558.3326,-84"/>
<text text-anchor="middle" x="492.4292" y="-68.8" font-family="Times,serif" font-size="14.00" fill="#000000">NOR QS2_DigiJQ 4</text>
<text text-anchor="middle" x="492.4292" y="-54.8" font-family="Times,serif" font-size="14.00" fill="#000000">2346988.66</text>
<text text-anchor="middle" x="492.4292" y="-40.8" font-family="Times,serif" font-size="14.00" fill="#000000">00000001</text>
</g>
<!-- QS2_DigiJQ&#45;&gt;S2_SrpR -->
<g id="edge2" class="edge">
<title>QS2_DigiJQ&#45;&gt;S2_SrpR</title>
<path fill="none" stroke="#000000" d="M558.3461,-59C558.3461,-59 583.9687,-59 583.9687,-59"/>
<polygon fill="#000000" stroke="#000000" points="583.9687,-62.5001 593.9687,-59 583.9687,-55.5001 583.9687,-62.5001"/>
</g>
<!-- P3_PhlF&#45;&gt;QS2_DigiJQ -->
<g id="edge3" class="edge">
<title>P3_PhlF&#45;&gt;QS2_DigiJQ</title>
<path fill="none" stroke="#000000" d="M389.6082,-80C389.6082,-80 416.4039,-80 416.4039,-80"/>
<polygon fill="#000000" stroke="#000000" points="416.404,-83.5001 426.4039,-80 416.4039,-76.5001 416.404,-83.5001"/>
</g>
<!-- P3_PhlF&#45;&gt;P3_PhlF -->
<g id="edge5" class="edge">
<title>P3_PhlF&#45;&gt;P3_PhlF</title>
<path fill="none" stroke="#000000" d="M282.6299,-93C269.1334,-93 258.4033,-93 258.4033,-93 258.4033,-93 258.4033,-56 258.4033,-56 258.4033,-56 415.4033,-56 415.4033,-56 415.4033,-56 415.4033,-76 415.4033,-76 415.4033,-76 399.946,-76 399.946,-76"/>
<polygon fill="#000000" stroke="#000000" points="399.946,-72.5001 389.946,-76 399.9459,-79.5001 399.946,-72.5001"/>
</g>
<!-- P3_PhlF&#45;&gt;P3_PhlF -->
<g id="edge7" class="edge">
<title>P3_PhlF&#45;&gt;P3_PhlF</title>
<path fill="none" stroke="#000000" d="M282.802,-80.5C275.4737,-80.5 270.4033,-80.5 270.4033,-80.5 270.4033,-80.5 270.4033,-62 270.4033,-62 270.4033,-62 403.4033,-62 403.4033,-62 403.4033,-62 403.4033,-72 403.4033,-72 403.4033,-72 399.8283,-72 399.8283,-72"/>
<polygon fill="#000000" stroke="#000000" points="399.8283,-68.5001 389.8283,-72 399.8282,-75.5001 399.8283,-68.5001"/>
</g>
<!-- J1_DigiJ&#45;&gt;QS2_DigiJQ -->
<g id="edge4" class="edge">
<title>J1_DigiJ&#45;&gt;QS2_DigiJQ</title>
<path fill="none" stroke="#000000" d="M390.4821,-42C390.4821,-42 416.2528,-42 416.2528,-42"/>
<polygon fill="#000000" stroke="#000000" points="416.2528,-45.5001 426.2528,-42 416.2528,-38.5001 416.2528,-45.5001"/>
</g>
<!-- Q1_QacR&#45;&gt;P3_PhlF -->
<g id="edge8" class="edge">
<title>Q1_QacR&#45;&gt;P3_PhlF</title>
<path fill="none" stroke="#000000" d="M246.3244,-105.5C246.3244,-105.5 272.6784,-105.5 272.6784,-105.5"/>
<polygon fill="#000000" stroke="#000000" points="272.6785,-109.0001 282.6784,-105.5 272.6784,-102.0001 272.6785,-109.0001"/>
</g>
</g>
</svg>
