<?xml version="1.0" encoding="UTF-8" standalone="no"?>
<!DOCTYPE svg PUBLIC "-//W3C//DTD SVG 1.1//EN"
 "http://www.w3.org/Graphics/SVG/1.1/DTD/svg11.dtd">
<!-- Generated by graphviz version 2.40.1 (20161225.0304)
 -->
<!-- Title: %3 Pages: 1 -->
<svg width="584pt" height="215pt"
 viewBox="0.00 0.00 584.00 215.00" xmlns="http://www.w3.org/2000/svg" xmlns:xlink="http://www.w3.org/1999/xlink">
<g id="graph0" class="graph" transform="scale(1 1) rotate(0) translate(4 211)">
<title>%3</title>
<polygon fill="#ffffff" stroke="transparent" points="-4,4 -4,-211 580,-211 580,4 -4,4"/>
<!-- YFP -->
<g id="node1" class="node">
<title>YFP</title>
<text text-anchor="middle" x="549" y="-76.8" font-family="Times,serif" font-size="14.00" fill="#000000">YFP</text>
</g>
<!-- pTac -->
<g id="node2" class="node">
<title>pTac</title>
<text text-anchor="middle" x="126" y="-184.8" font-family="Times,serif" font-size="14.00" fill="#000000">pTac</text>
</g>
<!-- P3_PhlF -->
<g id="node7" class="node">
<title>P3_PhlF</title>
<image xlink:href="demo_FixedGatesDigital0xFE_002_A000_xfer_model_P3_PhlF.png" width="72px" height="72px" preserveAspectRatio="xMinYMin meet" x="198" y="-162"/>
</g>
<!-- pTac&#45;&gt;P3_PhlF -->
<g id="edge9" class="edge">
<title>pTac&#45;&gt;P3_PhlF</title>
<path fill="none" stroke="#000000" d="M126,-170.9393C126,-162.915 126,-155.25 126,-155.25 126,-155.25 187.7371,-155.25 187.7371,-155.25"/>
<polygon fill="#000000" stroke="#000000" points="187.7372,-158.7501 197.7371,-155.25 187.7371,-151.7501 187.7372,-158.7501"/>
</g>
<!-- pTet -->
<g id="node3" class="node">
<title>pTet</title>
<text text-anchor="middle" x="27" y="-112.8" font-family="Times,serif" font-size="14.00" fill="#000000">pTet</text>
</g>
<!-- Q1_QacR -->
<g id="node9" class="node">
<title>Q1_QacR</title>
<image xlink:href="demo_FixedGatesDigital0xFE_002_A000_xfer_model_Q1_QacR.png" width="72px" height="72px" preserveAspectRatio="xMinYMin meet" x="90" y="-153"/>
</g>
<!-- pTet&#45;&gt;Q1_QacR -->
<g id="edge10" class="edge">
<title>pTet&#45;&gt;Q1_QacR</title>
<path fill="none" stroke="#000000" d="M54.0522,-117C54.0522,-117 79.6982,-117 79.6982,-117"/>
<polygon fill="#000000" stroke="#000000" points="79.6982,-120.5001 89.6982,-117 79.6982,-113.5001 79.6982,-120.5001"/>
</g>
<!-- pBAD -->
<g id="node4" class="node">
<title>pBAD</title>
<text text-anchor="middle" x="126" y="-31.8" font-family="Times,serif" font-size="14.00" fill="#000000">pBAD</text>
</g>
<!-- J1_DigiJ -->
<g id="node8" class="node">
<title>J1_DigiJ</title>
<image xlink:href="demo_FixedGatesDigital0xFE_002_A000_xfer_model_J1_DigiJ.png" width="72px" height="72px" preserveAspectRatio="xMinYMin meet" x="198" y="-72"/>
</g>
<!-- pBAD&#45;&gt;J1_DigiJ -->
<g id="edge6" class="edge">
<title>pBAD&#45;&gt;J1_DigiJ</title>
<path fill="none" stroke="#000000" d="M153.253,-36C153.253,-36 187.7747,-36 187.7747,-36"/>
<polygon fill="#000000" stroke="#000000" points="187.7747,-39.5001 197.7747,-36 187.7747,-32.5001 187.7747,-39.5001"/>
</g>
<!-- S2_SrpR -->
<g id="node5" class="node">
<title>S2_SrpR</title>
<image xlink:href="demo_FixedGatesDigital0xFE_002_A000_xfer_model_S2_SrpR.png" width="72px" height="72px" preserveAspectRatio="xMinYMin meet" x="414" y="-117"/>
</g>
<!-- S2_SrpR&#45;&gt;YFP -->
<g id="edge1" class="edge">
<title>S2_SrpR&#45;&gt;YFP</title>
<path fill="none" stroke="#000000" d="M486.0213,-81C486.0213,-81 511.8547,-81 511.8547,-81"/>
<polygon fill="#000000" stroke="#000000" points="511.8548,-84.5001 521.8547,-81 511.8547,-77.5001 511.8548,-84.5001"/>
</g>
<!-- QS2_DigiJQ -->
<g id="node6" class="node">
<title>QS2_DigiJQ</title>
<image xlink:href="demo_FixedGatesDigital0xFE_002_A000_xfer_model_QS2_DigiJQ.png" width="72px" height="72px" preserveAspectRatio="xMinYMin meet" x="306" y="-117"/>
</g>
<!-- QS2_DigiJQ&#45;&gt;S2_SrpR -->
<g id="edge2" class="edge">
<title>QS2_DigiJQ&#45;&gt;S2_SrpR</title>
<path fill="none" stroke="#000000" d="M378.2629,-81C378.2629,-81 403.649,-81 403.649,-81"/>
<polygon fill="#000000" stroke="#000000" points="403.649,-84.5001 413.649,-81 403.649,-77.5001 403.649,-84.5001"/>
</g>
<!-- P3_PhlF&#45;&gt;QS2_DigiJQ -->
<g id="edge3" class="edge">
<title>P3_PhlF&#45;&gt;QS2_DigiJQ</title>
<path fill="none" stroke="#000000" d="M270.2629,-103.5C270.2629,-103.5 295.649,-103.5 295.649,-103.5"/>
<polygon fill="#000000" stroke="#000000" points="295.649,-107.0001 305.649,-103.5 295.649,-100.0001 295.649,-107.0001"/>
</g>
<!-- P3_PhlF&#45;&gt;P3_PhlF -->
<g id="edge5" class="edge">
<title>P3_PhlF&#45;&gt;P3_PhlF</title>
<path fill="none" stroke="#000000" d="M197.6195,-159.75C190.9248,-159.75 186,-159.75 186,-159.75 186,-159.75 186,-165 186,-165 186,-165 282,-165 282,-165 282,-165 282,-147 282,-147 282,-147 280.3805,-147 280.3805,-147"/>
<polygon fill="#000000" stroke="#000000" points="280.3806,-143.5001 270.3805,-147 280.3805,-150.5001 280.3806,-143.5001"/>
</g>
<!-- P3_PhlF&#45;&gt;P3_PhlF -->
<g id="edge7" class="edge">
<title>P3_PhlF&#45;&gt;P3_PhlF</title>
<path fill="none" stroke="#000000" d="M197.7136,-157.5C185.0779,-157.5 174,-157.5 174,-157.5 174,-157.5 174,-168 174,-168 174,-168 294,-168 294,-168 294,-168 294,-132 294,-132 294,-132 280.2864,-132 280.2864,-132"/>
<polygon fill="#000000" stroke="#000000" points="280.2864,-128.5001 270.2864,-132 280.2864,-135.5001 280.2864,-128.5001"/>
</g>
<!-- J1_DigiJ&#45;&gt;QS2_DigiJQ -->
<g id="edge4" class="edge">
<title>J1_DigiJ&#45;&gt;QS2_DigiJQ</title>
<path fill="none" stroke="#000000" d="M270.2629,-58.5C270.2629,-58.5 295.649,-58.5 295.649,-58.5"/>
<polygon fill="#000000" stroke="#000000" points="295.649,-62.0001 305.649,-58.5 295.649,-55.0001 295.649,-62.0001"/>
</g>
<!-- Q1_QacR&#45;&gt;P3_PhlF -->
<g id="edge8" class="edge">
<title>Q1_QacR&#45;&gt;P3_PhlF</title>
<path fill="none" stroke="#000000" d="M162.2629,-121.5C162.2629,-121.5 187.649,-121.5 187.649,-121.5"/>
<polygon fill="#000000" stroke="#000000" points="187.649,-125.0001 197.649,-121.5 187.649,-118.0001 187.649,-125.0001"/>
</g>
</g>
</svg>
