<?xml version="1.0" encoding="UTF-8" standalone="no"?>
<!DOCTYPE svg PUBLIC "-//W3C//DTD SVG 1.1//EN"
 "http://www.w3.org/Graphics/SVG/1.1/DTD/svg11.dtd">
<!-- Generated by graphviz version 2.40.1 (20161225.0304)
 -->
<!-- Title: %3 Pages: 1 -->
<svg width="827pt" height="194pt"
 viewBox="0.00 0.00 827.27 194.00" xmlns="http://www.w3.org/2000/svg" xmlns:xlink="http://www.w3.org/1999/xlink">
<g id="graph0" class="graph" transform="scale(1 1) rotate(0) translate(4 190)">
<title>%3</title>
<polygon fill="#ffffff" stroke="transparent" points="-4,4 -4,-190 823.2656,-190 823.2656,4 -4,4"/>
<!-- YFP -->
<g id="node1" class="node">
<title>YFP</title>
<text text-anchor="middle" x="784.291" y="-102.8" font-family="Times,serif" font-size="14.00" fill="#000000">YFP</text>
<text text-anchor="middle" x="784.291" y="-88.8" font-family="Times,serif" font-size="14.00" fill="#000000"> &#160;&#160;&#160;4.47</text>
<text text-anchor="middle" x="784.291" y="-74.8" font-family="Times,serif" font-size="14.00" fill="#000000">00111110</text>
</g>
<!-- pTac -->
<g id="node2" class="node">
<title>pTac</title>
<text text-anchor="middle" x="487.6304" y="-170.8" font-family="Times,serif" font-size="14.00" fill="#000000">INPUT pTac 0</text>
<text text-anchor="middle" x="487.6304" y="-156.8" font-family="Times,serif" font-size="14.00" fill="#000000"> &#160;823.53</text>
<text text-anchor="middle" x="487.6304" y="-142.8" font-family="Times,serif" font-size="14.00" fill="#000000">01010101</text>
</g>
<!-- B3_BM3R1 -->
<g id="node5" class="node">
<title>B3_BM3R1</title>
<polygon fill="#ffffff" stroke="#000000" points="713.3267,-152 585.2856,-152 585.2856,-102 713.3267,-102 713.3267,-152"/>
<text text-anchor="middle" x="649.3062" y="-136.8" font-family="Times,serif" font-size="14.00" fill="#000000">NOR B3_BM3R1 4</text>
<text text-anchor="middle" x="649.3062" y="-122.8" font-family="Times,serif" font-size="14.00" fill="#000000"> &#160;&#160;74.36</text>
<text text-anchor="middle" x="649.3062" y="-108.8" font-family="Times,serif" font-size="14.00" fill="#000000">00101010</text>
</g>
<!-- pTac&#45;&gt;B3_BM3R1 -->
<g id="edge3" class="edge">
<title>pTac&#45;&gt;B3_BM3R1</title>
<path fill="none" stroke="#000000" d="M537.0169,-144C537.0169,-144 575.012,-144 575.012,-144"/>
<polygon fill="#000000" stroke="#000000" points="575.0121,-147.5001 585.012,-144 575.012,-140.5001 575.0121,-147.5001"/>
</g>
<!-- pTet -->
<g id="node3" class="node">
<title>pTet</title>
<text text-anchor="middle" x="47.8262" y="-34.8" font-family="Times,serif" font-size="14.00" fill="#000000">INPUT pTet 0</text>
<text text-anchor="middle" x="47.8262" y="-20.8" font-family="Times,serif" font-size="14.00" fill="#000000"> 3384.62</text>
<text text-anchor="middle" x="47.8262" y="-6.8" font-family="Times,serif" font-size="14.00" fill="#000000">00110011</text>
</g>
<!-- A1_AmtR -->
<g id="node10" class="node">
<title>A1_AmtR</title>
<polygon fill="#ffffff" stroke="#000000" points="247.8003,-50 131.603,-50 131.603,0 247.8003,0 247.8003,-50"/>
<text text-anchor="middle" x="189.7017" y="-34.8" font-family="Times,serif" font-size="14.00" fill="#000000">NOT A1_AmtR 1</text>
<text text-anchor="middle" x="189.7017" y="-20.8" font-family="Times,serif" font-size="14.00" fill="#000000"> &#160;&#160;58.41</text>
<text text-anchor="middle" x="189.7017" y="-6.8" font-family="Times,serif" font-size="14.00" fill="#000000">11001100</text>
</g>
<!-- pTet&#45;&gt;A1_AmtR -->
<g id="edge13" class="edge">
<title>pTet&#45;&gt;A1_AmtR</title>
<path fill="none" stroke="#000000" d="M95.8587,-25C95.8587,-25 121.3941,-25 121.3941,-25"/>
<polygon fill="#000000" stroke="#000000" points="121.3941,-28.5001 131.3941,-25 121.3941,-21.5001 121.3941,-28.5001"/>
</g>
<!-- pBAD -->
<g id="node4" class="node">
<title>pBAD</title>
<text text-anchor="middle" x="189.7017" y="-111.8" font-family="Times,serif" font-size="14.00" fill="#000000">INPUT pBAD 0</text>
<text text-anchor="middle" x="189.7017" y="-97.8" font-family="Times,serif" font-size="14.00" fill="#000000"> &#160;304.88</text>
<text text-anchor="middle" x="189.7017" y="-83.8" font-family="Times,serif" font-size="14.00" fill="#000000">00001111</text>
</g>
<!-- H1_HlyIIR -->
<g id="node8" class="node">
<title>H1_HlyIIR</title>
<polygon fill="#ffffff" stroke="#000000" points="549.4619,-118 425.7989,-118 425.7989,-68 549.4619,-68 549.4619,-118"/>
<text text-anchor="middle" x="487.6304" y="-102.8" font-family="Times,serif" font-size="14.00" fill="#000000">NOR H1_HlyIIR 3</text>
<text text-anchor="middle" x="487.6304" y="-88.8" font-family="Times,serif" font-size="14.00" fill="#000000"> &#160;&#160;29.53</text>
<text text-anchor="middle" x="487.6304" y="-74.8" font-family="Times,serif" font-size="14.00" fill="#000000">11000000</text>
</g>
<!-- pBAD&#45;&gt;H1_HlyIIR -->
<g id="edge9" class="edge">
<title>pBAD&#45;&gt;H1_HlyIIR</title>
<path fill="none" stroke="#000000" d="M243.3094,-101C243.3094,-101 415.964,-101 415.964,-101"/>
<polygon fill="#000000" stroke="#000000" points="415.964,-104.5001 425.964,-101 415.9639,-97.5001 415.964,-104.5001"/>
</g>
<!-- E1_BetI -->
<g id="node9" class="node">
<title>E1_BetI</title>
<polygon fill="#ffffff" stroke="#000000" points="390.072,-84 283.6438,-84 283.6438,-34 390.072,-34 390.072,-84"/>
<text text-anchor="middle" x="336.8579" y="-68.8" font-family="Times,serif" font-size="14.00" fill="#000000">NOR E1_BetI 2</text>
<text text-anchor="middle" x="336.8579" y="-54.8" font-family="Times,serif" font-size="14.00" fill="#000000"> &#160;&#160;32.47</text>
<text text-anchor="middle" x="336.8579" y="-40.8" font-family="Times,serif" font-size="14.00" fill="#000000">00110000</text>
</g>
<!-- pBAD&#45;&gt;E1_BetI -->
<g id="edge11" class="edge">
<title>pBAD&#45;&gt;E1_BetI</title>
<path fill="none" stroke="#000000" d="M243.2447,-80.5C243.2447,-80.5 273.6011,-80.5 273.6011,-80.5"/>
<polygon fill="#000000" stroke="#000000" points="273.6011,-84.0001 283.6011,-80.5 273.6011,-77.0001 273.6011,-84.0001"/>
</g>
<!-- B3_BM3R1&#45;&gt;YFP -->
<g id="edge1" class="edge">
<title>B3_BM3R1&#45;&gt;YFP</title>
<path fill="none" stroke="#000000" d="M713.6359,-110C713.6359,-110 739.1117,-110 739.1117,-110"/>
<polygon fill="#000000" stroke="#000000" points="739.1118,-113.5001 749.1117,-110 739.1117,-106.5001 739.1118,-113.5001"/>
</g>
<!-- N1_LmrA -->
<g id="node6" class="node">
<title>N1_LmrA</title>
<polygon fill="#ffffff" stroke="#000000" points="707.9234,-84 590.6889,-84 590.6889,-34 707.9234,-34 707.9234,-84"/>
<text text-anchor="middle" x="649.3062" y="-68.8" font-family="Times,serif" font-size="14.00" fill="#000000">NOR N1_LmrA 4</text>
<text text-anchor="middle" x="649.3062" y="-54.8" font-family="Times,serif" font-size="14.00" fill="#000000"> &#160;&#160;&#160;8.55</text>
<text text-anchor="middle" x="649.3062" y="-40.8" font-family="Times,serif" font-size="14.00" fill="#000000">00111100</text>
</g>
<!-- N1_LmrA&#45;&gt;YFP -->
<g id="edge2" class="edge">
<title>N1_LmrA&#45;&gt;YFP</title>
<path fill="none" stroke="#000000" d="M708.1198,-76C708.1198,-76 738.9741,-76 738.9741,-76"/>
<polygon fill="#000000" stroke="#000000" points="738.9742,-79.5001 748.9741,-76 738.9741,-72.5001 738.9742,-79.5001"/>
</g>
<!-- P3_PhlF -->
<g id="node7" class="node">
<title>P3_PhlF</title>
<polygon fill="#ffffff" stroke="#000000" points="541.4372,-50 433.8236,-50 433.8236,0 541.4372,0 541.4372,-50"/>
<text text-anchor="middle" x="487.6304" y="-34.8" font-family="Times,serif" font-size="14.00" fill="#000000">NOR P3_PhlF 3</text>
<text text-anchor="middle" x="487.6304" y="-20.8" font-family="Times,serif" font-size="14.00" fill="#000000"> &#160;249.88</text>
<text text-anchor="middle" x="487.6304" y="-6.8" font-family="Times,serif" font-size="14.00" fill="#000000">00000011</text>
</g>
<!-- P3_PhlF&#45;&gt;N1_LmrA -->
<g id="edge5" class="edge">
<title>P3_PhlF&#45;&gt;N1_LmrA</title>
<path fill="none" stroke="#000000" d="M541.4661,-42C541.4661,-42 580.7017,-42 580.7017,-42"/>
<polygon fill="#000000" stroke="#000000" points="580.7018,-45.5001 590.7017,-42 580.7017,-38.5001 580.7018,-45.5001"/>
</g>
<!-- H1_HlyIIR&#45;&gt;B3_BM3R1 -->
<g id="edge4" class="edge">
<title>H1_HlyIIR&#45;&gt;B3_BM3R1</title>
<path fill="none" stroke="#000000" d="M549.6761,-110C549.6761,-110 575.2843,-110 575.2843,-110"/>
<polygon fill="#000000" stroke="#000000" points="575.2843,-113.5001 585.2843,-110 575.2842,-106.5001 575.2843,-113.5001"/>
</g>
<!-- H1_HlyIIR&#45;&gt;N1_LmrA -->
<g id="edge6" class="edge">
<title>H1_HlyIIR&#45;&gt;N1_LmrA</title>
<path fill="none" stroke="#000000" d="M549.6761,-76C549.6761,-76 580.616,-76 580.616,-76"/>
<polygon fill="#000000" stroke="#000000" points="580.616,-79.5001 590.616,-76 580.6159,-72.5001 580.616,-79.5001"/>
</g>
<!-- E1_BetI&#45;&gt;P3_PhlF -->
<g id="edge8" class="edge">
<title>E1_BetI&#45;&gt;P3_PhlF</title>
<path fill="none" stroke="#000000" d="M390.0146,-42C390.0146,-42 423.6813,-42 423.6813,-42"/>
<polygon fill="#000000" stroke="#000000" points="423.6813,-45.5001 433.6813,-42 423.6812,-38.5001 423.6813,-45.5001"/>
</g>
<!-- E1_BetI&#45;&gt;H1_HlyIIR -->
<g id="edge10" class="edge">
<title>E1_BetI&#45;&gt;H1_HlyIIR</title>
<path fill="none" stroke="#000000" d="M390.0146,-76C390.0146,-76 415.9342,-76 415.9342,-76"/>
<polygon fill="#000000" stroke="#000000" points="415.9342,-79.5001 425.9342,-76 415.9341,-72.5001 415.9342,-79.5001"/>
</g>
<!-- A1_AmtR&#45;&gt;P3_PhlF -->
<g id="edge7" class="edge">
<title>A1_AmtR&#45;&gt;P3_PhlF</title>
<path fill="none" stroke="#000000" d="M247.8526,-17C247.8526,-17 423.6373,-17 423.6373,-17"/>
<polygon fill="#000000" stroke="#000000" points="423.6373,-20.5001 433.6373,-17 423.6372,-13.5001 423.6373,-20.5001"/>
</g>
<!-- A1_AmtR&#45;&gt;E1_BetI -->
<g id="edge12" class="edge">
<title>A1_AmtR&#45;&gt;E1_BetI</title>
<path fill="none" stroke="#000000" d="M247.8617,-42C247.8617,-42 273.4255,-42 273.4255,-42"/>
<polygon fill="#000000" stroke="#000000" points="273.4255,-45.5001 283.4255,-42 273.4254,-38.5001 273.4255,-45.5001"/>
</g>
</g>
</svg>
