<?xml version="1.0" encoding="UTF-8" standalone="no"?>
<!DOCTYPE svg PUBLIC "-//W3C//DTD SVG 1.1//EN"
 "http://www.w3.org/Graphics/SVG/1.1/DTD/svg11.dtd">
<!-- Generated by graphviz version 2.40.1 (20161225.0304)
 -->
<!-- Title: %3 Pages: 1 -->
<svg width="672pt" height="152pt"
 viewBox="0.00 0.00 671.66 152.00" xmlns="http://www.w3.org/2000/svg" xmlns:xlink="http://www.w3.org/1999/xlink">
<g id="graph0" class="graph" transform="scale(1 1) rotate(0) translate(4 148)">
<title>%3</title>
<polygon fill="#ffffff" stroke="transparent" points="-4,4 -4,-148 667.6592,-148 667.6592,4 -4,4"/>
<!-- out -->
<g id="node1" class="node">
<title>out</title>
<text text-anchor="middle" x="628.6846" y="-74.8" font-family="Times,serif" font-size="14.00" fill="#000000">out</text>
<text text-anchor="middle" x="628.6846" y="-60.8" font-family="Times,serif" font-size="14.00" fill="#000000">00111110</text>
</g>
<!-- in3 -->
<g id="node2" class="node">
<title>in3</title>
<text text-anchor="middle" x="403.7192" y="-128.8" font-family="Times,serif" font-size="14.00" fill="#000000">INPUT in3 0</text>
<text text-anchor="middle" x="403.7192" y="-114.8" font-family="Times,serif" font-size="14.00" fill="#000000">01010101</text>
</g>
<!-- g1 -->
<g id="node10" class="node">
<title>g1</title>
<polygon fill="#ffffff" stroke="#000000" points="557.4906,-117 484.3708,-117 484.3708,-81 557.4906,-81 557.4906,-117"/>
<text text-anchor="middle" x="520.9307" y="-101.8" font-family="Times,serif" font-size="14.00" fill="#000000">NOR g1 4</text>
<text text-anchor="middle" x="520.9307" y="-87.8" font-family="Times,serif" font-size="14.00" fill="#000000">00101010</text>
</g>
<!-- in3&#45;&gt;g1 -->
<g id="edge3" class="edge">
<title>in3&#45;&gt;g1</title>
<path fill="none" stroke="#000000" d="M448.3662,-112.5C448.3662,-112.5 474.029,-112.5 474.029,-112.5"/>
<polygon fill="#000000" stroke="#000000" points="474.029,-116.0001 484.029,-112.5 474.0289,-109.0001 474.029,-116.0001"/>
</g>
<!-- in2 -->
<g id="node3" class="node">
<title>in2</title>
<text text-anchor="middle" x="44.4321" y="-20.8" font-family="Times,serif" font-size="14.00" fill="#000000">INPUT in2 0</text>
<text text-anchor="middle" x="44.4321" y="-6.8" font-family="Times,serif" font-size="14.00" fill="#000000">00110011</text>
</g>
<!-- g6 -->
<g id="node5" class="node">
<title>g6</title>
<polygon fill="#ffffff" stroke="#000000" points="205.3243,-36 133.2685,-36 133.2685,0 205.3243,0 205.3243,-36"/>
<text text-anchor="middle" x="169.2964" y="-20.8" font-family="Times,serif" font-size="14.00" fill="#000000">NOT g6 1</text>
<text text-anchor="middle" x="169.2964" y="-6.8" font-family="Times,serif" font-size="14.00" fill="#000000">11001100</text>
</g>
<!-- in2&#45;&gt;g6 -->
<g id="edge13" class="edge">
<title>in2&#45;&gt;g6</title>
<path fill="none" stroke="#000000" d="M88.8062,-18C88.8062,-18 122.8842,-18 122.8842,-18"/>
<polygon fill="#000000" stroke="#000000" points="122.8842,-21.5001 132.8842,-18 122.8842,-14.5001 122.8842,-21.5001"/>
</g>
<!-- in1 -->
<g id="node4" class="node">
<title>in1</title>
<text text-anchor="middle" x="169.2964" y="-83.8" font-family="Times,serif" font-size="14.00" fill="#000000">INPUT in1 0</text>
<text text-anchor="middle" x="169.2964" y="-69.8" font-family="Times,serif" font-size="14.00" fill="#000000">00001111</text>
</g>
<!-- g5 -->
<g id="node6" class="node">
<title>g5</title>
<polygon fill="#ffffff" stroke="#000000" points="323.0677,-63 249.9479,-63 249.9479,-27 323.0677,-27 323.0677,-63"/>
<text text-anchor="middle" x="286.5078" y="-47.8" font-family="Times,serif" font-size="14.00" fill="#000000">NOR g5 2</text>
<text text-anchor="middle" x="286.5078" y="-33.8" font-family="Times,serif" font-size="14.00" fill="#000000">00110000</text>
</g>
<!-- in1&#45;&gt;g5 -->
<g id="edge11" class="edge">
<title>in1&#45;&gt;g5</title>
<path fill="none" stroke="#000000" d="M209.6592,-62.6763C209.6592,-55.7466 209.6592,-49.5 209.6592,-49.5 209.6592,-49.5 239.884,-49.5 239.884,-49.5"/>
<polygon fill="#000000" stroke="#000000" points="239.8841,-53.0001 249.884,-49.5 239.884,-46.0001 239.8841,-53.0001"/>
</g>
<!-- g4 -->
<g id="node7" class="node">
<title>g4</title>
<polygon fill="#ffffff" stroke="#000000" points="440.2791,-90 367.1593,-90 367.1593,-54 440.2791,-54 440.2791,-90"/>
<text text-anchor="middle" x="403.7192" y="-74.8" font-family="Times,serif" font-size="14.00" fill="#000000">NOR g4 3</text>
<text text-anchor="middle" x="403.7192" y="-60.8" font-family="Times,serif" font-size="14.00" fill="#000000">11000000</text>
</g>
<!-- in1&#45;&gt;g4 -->
<g id="edge9" class="edge">
<title>in1&#45;&gt;g4</title>
<path fill="none" stroke="#000000" d="M213.6651,-76.5C213.6651,-76.5 356.854,-76.5 356.854,-76.5"/>
<polygon fill="#000000" stroke="#000000" points="356.854,-80.0001 366.854,-76.5 356.8539,-73.0001 356.854,-80.0001"/>
</g>
<!-- g6&#45;&gt;g5 -->
<g id="edge12" class="edge">
<title>g6&#45;&gt;g5</title>
<path fill="none" stroke="#000000" d="M205.4201,-31.5C205.4201,-31.5 239.8973,-31.5 239.8973,-31.5"/>
<polygon fill="#000000" stroke="#000000" points="239.8973,-35.0001 249.8973,-31.5 239.8972,-28.0001 239.8973,-35.0001"/>
</g>
<!-- g3 -->
<g id="node8" class="node">
<title>g3</title>
<polygon fill="#ffffff" stroke="#000000" points="440.2791,-36 367.1593,-36 367.1593,0 440.2791,0 440.2791,-36"/>
<text text-anchor="middle" x="403.7192" y="-20.8" font-family="Times,serif" font-size="14.00" fill="#000000">NOR g3 3</text>
<text text-anchor="middle" x="403.7192" y="-6.8" font-family="Times,serif" font-size="14.00" fill="#000000">00000011</text>
</g>
<!-- g6&#45;&gt;g3 -->
<g id="edge7" class="edge">
<title>g6&#45;&gt;g3</title>
<path fill="none" stroke="#000000" d="M205.4112,-13.5C205.4112,-13.5 356.7894,-13.5 356.7894,-13.5"/>
<polygon fill="#000000" stroke="#000000" points="356.7894,-17.0001 366.7894,-13.5 356.7894,-10.0001 356.7894,-17.0001"/>
</g>
<!-- g5&#45;&gt;g4 -->
<g id="edge10" class="edge">
<title>g5&#45;&gt;g4</title>
<path fill="none" stroke="#000000" d="M323.2726,-58.5C323.2726,-58.5 357.0849,-58.5 357.0849,-58.5"/>
<polygon fill="#000000" stroke="#000000" points="357.0849,-62.0001 367.0849,-58.5 357.0848,-55.0001 357.0849,-62.0001"/>
</g>
<!-- g5&#45;&gt;g3 -->
<g id="edge8" class="edge">
<title>g5&#45;&gt;g3</title>
<path fill="none" stroke="#000000" d="M323.2726,-31.5C323.2726,-31.5 357.0849,-31.5 357.0849,-31.5"/>
<polygon fill="#000000" stroke="#000000" points="357.0849,-35.0001 367.0849,-31.5 357.0848,-28.0001 357.0849,-35.0001"/>
</g>
<!-- g2 -->
<g id="node9" class="node">
<title>g2</title>
<polygon fill="#ffffff" stroke="#000000" points="557.4906,-63 484.3708,-63 484.3708,-27 557.4906,-27 557.4906,-63"/>
<text text-anchor="middle" x="520.9307" y="-47.8" font-family="Times,serif" font-size="14.00" fill="#000000">NOR g2 4</text>
<text text-anchor="middle" x="520.9307" y="-33.8" font-family="Times,serif" font-size="14.00" fill="#000000">00111100</text>
</g>
<!-- g4&#45;&gt;g2 -->
<g id="edge6" class="edge">
<title>g4&#45;&gt;g2</title>
<path fill="none" stroke="#000000" d="M440.4841,-58.5C440.4841,-58.5 474.2963,-58.5 474.2963,-58.5"/>
<polygon fill="#000000" stroke="#000000" points="474.2963,-62.0001 484.2963,-58.5 474.2962,-55.0001 474.2963,-62.0001"/>
</g>
<!-- g4&#45;&gt;g1 -->
<g id="edge4" class="edge">
<title>g4&#45;&gt;g1</title>
<path fill="none" stroke="#000000" d="M440.4841,-85.5C440.4841,-85.5 474.2963,-85.5 474.2963,-85.5"/>
<polygon fill="#000000" stroke="#000000" points="474.2963,-89.0001 484.2963,-85.5 474.2962,-82.0001 474.2963,-89.0001"/>
</g>
<!-- g3&#45;&gt;g2 -->
<g id="edge5" class="edge">
<title>g3&#45;&gt;g2</title>
<path fill="none" stroke="#000000" d="M440.4841,-31.5C440.4841,-31.5 474.2963,-31.5 474.2963,-31.5"/>
<polygon fill="#000000" stroke="#000000" points="474.2963,-35.0001 484.2963,-31.5 474.2962,-28.0001 474.2963,-35.0001"/>
</g>
<!-- g2&#45;&gt;out -->
<g id="edge2" class="edge">
<title>g2&#45;&gt;out</title>
<path fill="none" stroke="#000000" d="M557.7121,-58.5C557.7121,-58.5 583.5242,-58.5 583.5242,-58.5"/>
<polygon fill="#000000" stroke="#000000" points="583.5243,-62.0001 593.5242,-58.5 583.5242,-55.0001 583.5243,-62.0001"/>
</g>
<!-- g1&#45;&gt;out -->
<g id="edge1" class="edge">
<title>g1&#45;&gt;out</title>
<path fill="none" stroke="#000000" d="M557.7121,-85.5C557.7121,-85.5 583.5242,-85.5 583.5242,-85.5"/>
<polygon fill="#000000" stroke="#000000" points="583.5243,-89.0001 593.5242,-85.5 583.5242,-82.0001 583.5243,-89.0001"/>
</g>
</g>
</svg>
