<?xml version="1.0" encoding="UTF-8" standalone="no"?>
<!DOCTYPE svg PUBLIC "-//W3C//DTD SVG 1.1//EN"
 "http://www.w3.org/Graphics/SVG/1.1/DTD/svg11.dtd">
<!-- Generated by graphviz version 2.40.1 (20161225.0304)
 -->
<!-- Title: %3 Pages: 1 -->
<svg width="584pt" height="224pt"
 viewBox="0.00 0.00 584.00 224.00" xmlns="http://www.w3.org/2000/svg" xmlns:xlink="http://www.w3.org/1999/xlink">
<g id="graph0" class="graph" transform="scale(1 1) rotate(0) translate(4 220)">
<title>%3</title>
<polygon fill="#ffffff" stroke="transparent" points="-4,4 -4,-220 580,-220 580,4 -4,4"/>
<!-- YFP -->
<g id="node1" class="node">
<title>YFP</title>
<text text-anchor="middle" x="549" y="-112.8" font-family="Times,serif" font-size="14.00" fill="#000000">YFP</text>
</g>
<!-- pTac -->
<g id="node2" class="node">
<title>pTac</title>
<text text-anchor="middle" x="342" y="-193.8" font-family="Times,serif" font-size="14.00" fill="#000000">pTac</text>
</g>
<!-- P3_PhlF -->
<g id="node5" class="node">
<title>P3_PhlF</title>
<image xlink:href="SimAnnealing_0x00_001_A000_P3_PhlF_gate.png" width="72px" height="72px" preserveAspectRatio="xMinYMin meet" x="414" y="-198"/>
</g>
<!-- pTac&#45;&gt;P3_PhlF -->
<g id="edge3" class="edge">
<title>pTac&#45;&gt;P3_PhlF</title>
<path fill="none" stroke="#000000" d="M369.253,-189C369.253,-189 403.7747,-189 403.7747,-189"/>
<polygon fill="#000000" stroke="#000000" points="403.7747,-192.5001 413.7747,-189 403.7747,-185.5001 403.7747,-192.5001"/>
</g>
<!-- pTet -->
<g id="node3" class="node">
<title>pTet</title>
<text text-anchor="middle" x="27" y="-40.8" font-family="Times,serif" font-size="14.00" fill="#000000">pTet</text>
</g>
<!-- A1_AmtR -->
<g id="node10" class="node">
<title>A1_AmtR</title>
<image xlink:href="SimAnnealing_0x00_001_A000_A1_AmtR_gate.png" width="72px" height="72px" preserveAspectRatio="xMinYMin meet" x="90" y="-81"/>
</g>
<!-- pTet&#45;&gt;A1_AmtR -->
<g id="edge13" class="edge">
<title>pTet&#45;&gt;A1_AmtR</title>
<path fill="none" stroke="#000000" d="M54.0522,-45C54.0522,-45 79.6982,-45 79.6982,-45"/>
<polygon fill="#000000" stroke="#000000" points="79.6982,-48.5001 89.6982,-45 79.6982,-41.5001 79.6982,-48.5001"/>
</g>
<!-- pBAD -->
<g id="node4" class="node">
<title>pBAD</title>
<text text-anchor="middle" x="126" y="-126.8" font-family="Times,serif" font-size="14.00" fill="#000000">pBAD</text>
</g>
<!-- H1_HlyIIR -->
<g id="node8" class="node">
<title>H1_HlyIIR</title>
<image xlink:href="SimAnnealing_0x00_001_A000_H1_HlyIIR_gate.png" width="72px" height="72px" preserveAspectRatio="xMinYMin meet" x="306" y="-162"/>
</g>
<!-- pBAD&#45;&gt;H1_HlyIIR -->
<g id="edge9" class="edge">
<title>pBAD&#45;&gt;H1_HlyIIR</title>
<path fill="none" stroke="#000000" d="M153.3565,-133C153.3565,-133 295.8826,-133 295.8826,-133"/>
<polygon fill="#000000" stroke="#000000" points="295.8826,-136.5001 305.8826,-133 295.8825,-129.5001 295.8826,-136.5001"/>
</g>
<!-- E1_BetI -->
<g id="node9" class="node">
<title>E1_BetI</title>
<image xlink:href="SimAnnealing_0x00_001_A000_E1_BetI_gate.png" width="72px" height="72px" preserveAspectRatio="xMinYMin meet" x="198" y="-117"/>
</g>
<!-- pBAD&#45;&gt;E1_BetI -->
<g id="edge11" class="edge">
<title>pBAD&#45;&gt;E1_BetI</title>
<path fill="none" stroke="#000000" d="M126,-112.8056C126,-104.7218 126,-97 126,-97 126,-97 187.7371,-97 187.7371,-97"/>
<polygon fill="#000000" stroke="#000000" points="187.7372,-100.5001 197.7371,-97 187.7371,-93.5001 187.7372,-100.5001"/>
</g>
<!-- P3_PhlF&#45;&gt;YFP -->
<g id="edge1" class="edge">
<title>P3_PhlF&#45;&gt;YFP</title>
<path fill="none" stroke="#000000" d="M486.0213,-130.5C486.0213,-130.5 511.8547,-130.5 511.8547,-130.5"/>
<polygon fill="#000000" stroke="#000000" points="511.8548,-134.0001 521.8547,-130.5 511.8547,-127.0001 511.8548,-134.0001"/>
</g>
<!-- N1_LmrA -->
<g id="node6" class="node">
<title>N1_LmrA</title>
<image xlink:href="SimAnnealing_0x00_001_A000_N1_LmrA_gate.png" width="72px" height="72px" preserveAspectRatio="xMinYMin meet" x="414" y="-108"/>
</g>
<!-- N1_LmrA&#45;&gt;YFP -->
<g id="edge2" class="edge">
<title>N1_LmrA&#45;&gt;YFP</title>
<path fill="none" stroke="#000000" d="M486.0213,-103.5C486.0213,-103.5 511.8547,-103.5 511.8547,-103.5"/>
<polygon fill="#000000" stroke="#000000" points="511.8548,-107.0001 521.8547,-103.5 511.8547,-100.0001 511.8548,-107.0001"/>
</g>
<!-- B3_BM3R1 -->
<g id="node7" class="node">
<title>B3_BM3R1</title>
<image xlink:href="SimAnnealing_0x00_001_A000_B3_BM3R1_gate.png" width="72px" height="72px" preserveAspectRatio="xMinYMin meet" x="306" y="-72"/>
</g>
<!-- B3_BM3R1&#45;&gt;N1_LmrA -->
<g id="edge5" class="edge">
<title>B3_BM3R1&#45;&gt;N1_LmrA</title>
<path fill="none" stroke="#000000" d="M378.2629,-54C378.2629,-54 403.649,-54 403.649,-54"/>
<polygon fill="#000000" stroke="#000000" points="403.649,-57.5001 413.649,-54 403.649,-50.5001 403.649,-57.5001"/>
</g>
<!-- H1_HlyIIR&#45;&gt;P3_PhlF -->
<g id="edge4" class="edge">
<title>H1_HlyIIR&#45;&gt;P3_PhlF</title>
<path fill="none" stroke="#000000" d="M378.2629,-144C378.2629,-144 403.649,-144 403.649,-144"/>
<polygon fill="#000000" stroke="#000000" points="403.649,-147.5001 413.649,-144 403.649,-140.5001 403.649,-147.5001"/>
</g>
<!-- H1_HlyIIR&#45;&gt;N1_LmrA -->
<g id="edge6" class="edge">
<title>H1_HlyIIR&#45;&gt;N1_LmrA</title>
<path fill="none" stroke="#000000" d="M378.2629,-99C378.2629,-99 403.649,-99 403.649,-99"/>
<polygon fill="#000000" stroke="#000000" points="403.649,-102.5001 413.649,-99 403.649,-95.5001 403.649,-102.5001"/>
</g>
<!-- E1_BetI&#45;&gt;B3_BM3R1 -->
<g id="edge8" class="edge">
<title>E1_BetI&#45;&gt;B3_BM3R1</title>
<path fill="none" stroke="#000000" d="M270.2629,-58.5C270.2629,-58.5 295.649,-58.5 295.649,-58.5"/>
<polygon fill="#000000" stroke="#000000" points="295.649,-62.0001 305.649,-58.5 295.649,-55.0001 295.649,-62.0001"/>
</g>
<!-- E1_BetI&#45;&gt;H1_HlyIIR -->
<g id="edge10" class="edge">
<title>E1_BetI&#45;&gt;H1_HlyIIR</title>
<path fill="none" stroke="#000000" d="M270.2629,-103.5C270.2629,-103.5 295.649,-103.5 295.649,-103.5"/>
<polygon fill="#000000" stroke="#000000" points="295.649,-107.0001 305.649,-103.5 295.649,-100.0001 295.649,-107.0001"/>
</g>
<!-- A1_AmtR&#45;&gt;B3_BM3R1 -->
<g id="edge7" class="edge">
<title>A1_AmtR&#45;&gt;B3_BM3R1</title>
<path fill="none" stroke="#000000" d="M162.1535,-27C162.1535,-27 295.7285,-27 295.7285,-27"/>
<polygon fill="#000000" stroke="#000000" points="295.7285,-30.5001 305.7285,-27 295.7285,-23.5001 295.7285,-30.5001"/>
</g>
<!-- A1_AmtR&#45;&gt;E1_BetI -->
<g id="edge12" class="edge">
<title>A1_AmtR&#45;&gt;E1_BetI</title>
<path fill="none" stroke="#000000" d="M162.2629,-63C162.2629,-63 187.649,-63 187.649,-63"/>
<polygon fill="#000000" stroke="#000000" points="187.649,-66.5001 197.649,-63 187.649,-59.5001 187.649,-66.5001"/>
</g>
</g>
</svg>
