<?xml version="1.0" encoding="UTF-8" standalone="no"?>
<!DOCTYPE svg PUBLIC "-//W3C//DTD SVG 1.1//EN"
 "http://www.w3.org/Graphics/SVG/1.1/DTD/svg11.dtd">
<!-- Generated by graphviz version 2.40.1 (20161225.0304)
 -->
<!-- Title: %3 Pages: 1 -->
<svg width="961pt" height="197pt"
 viewBox="0.00 0.00 961.24 197.00" xmlns="http://www.w3.org/2000/svg" xmlns:xlink="http://www.w3.org/1999/xlink">
<g id="graph0" class="graph" transform="scale(1 1) rotate(0) translate(4 193)">
<title>%3</title>
<polygon fill="#ffffff" stroke="transparent" points="-4,4 -4,-193 957.2354,-193 957.2354,4 -4,4"/>
<!-- YFP -->
<g id="node1" class="node">
<title>YFP</title>
<text text-anchor="middle" x="918.2607" y="-104.8" font-family="Times,serif" font-size="14.00" fill="#000000">YFP</text>
<text text-anchor="middle" x="918.2607" y="-90.8" font-family="Times,serif" font-size="14.00" fill="#000000"> &#160;647.98</text>
<text text-anchor="middle" x="918.2607" y="-76.8" font-family="Times,serif" font-size="14.00" fill="#000000">00111110</text>
</g>
<!-- pTac -->
<g id="node2" class="node">
<title>pTac</title>
<text text-anchor="middle" x="185.8086" y="-79.8" font-family="Times,serif" font-size="14.00" fill="#000000">INPUT pTac 0</text>
<text text-anchor="middle" x="185.8086" y="-65.8" font-family="Times,serif" font-size="14.00" fill="#000000"> &#160;823.53</text>
<text text-anchor="middle" x="185.8086" y="-51.8" font-family="Times,serif" font-size="14.00" fill="#000000">01010101</text>
</g>
<!-- Q1_QacR -->
<g id="node8" class="node">
<title>Q1_QacR</title>
<polygon fill="#ffffff" stroke="#000000" points="390.2349,-145 276.2075,-145 276.2075,-95 390.2349,-95 390.2349,-145"/>
<text text-anchor="middle" x="333.2212" y="-129.8" font-family="Times,serif" font-size="14.00" fill="#000000">NOT Q1_QacR 1</text>
<text text-anchor="middle" x="333.2212" y="-115.8" font-family="Times,serif" font-size="14.00" fill="#000000"> &#160;238.74</text>
<text text-anchor="middle" x="333.2212" y="-101.8" font-family="Times,serif" font-size="14.00" fill="#000000">10101010</text>
</g>
<!-- pTac&#45;&gt;Q1_QacR -->
<g id="edge9" class="edge">
<title>pTac&#45;&gt;Q1_QacR</title>
<path fill="none" stroke="#000000" d="M186.2354,-95.293C186.2354,-101.7969 186.2354,-107 186.2354,-107 186.2354,-107 265.9717,-107 265.9717,-107"/>
<polygon fill="#000000" stroke="#000000" points="265.9718,-110.5001 275.9717,-107 265.9717,-103.5001 265.9718,-110.5001"/>
</g>
<!-- pTet -->
<g id="node3" class="node">
<title>pTet</title>
<text text-anchor="middle" x="47.8262" y="-173.8" font-family="Times,serif" font-size="14.00" fill="#000000">INPUT pTet 0</text>
<text text-anchor="middle" x="47.8262" y="-159.8" font-family="Times,serif" font-size="14.00" fill="#000000"> 3384.62</text>
<text text-anchor="middle" x="47.8262" y="-145.8" font-family="Times,serif" font-size="14.00" fill="#000000">00110011</text>
</g>
<!-- S2_SrpR -->
<g id="node5" class="node">
<title>S2_SrpR</title>
<polygon fill="#ffffff" stroke="#000000" points="847.3516,-120 737.0898,-120 737.0898,-70 847.3516,-70 847.3516,-120"/>
<text text-anchor="middle" x="792.2207" y="-104.8" font-family="Times,serif" font-size="14.00" fill="#000000">NOR S2_SrpR 1</text>
<text text-anchor="middle" x="792.2207" y="-90.8" font-family="Times,serif" font-size="14.00" fill="#000000"> &#160;673.67</text>
<text text-anchor="middle" x="792.2207" y="-76.8" font-family="Times,serif" font-size="14.00" fill="#000000">11000000</text>
</g>
<!-- pTet&#45;&gt;S2_SrpR -->
<g id="edge10" class="edge">
<title>pTet&#45;&gt;S2_SrpR</title>
<path fill="none" stroke="#000000" d="M95.5247,-176C259.8237,-176 792.2354,-176 792.2354,-176 792.2354,-176 792.2354,-130.1849 792.2354,-130.1849"/>
<polygon fill="#000000" stroke="#000000" points="795.7355,-130.1849 792.2354,-120.1849 788.7355,-130.1849 795.7355,-130.1849"/>
</g>
<!-- J2_DigiJ -->
<g id="node9" class="node">
<title>J2_DigiJ</title>
<polygon fill="#ffffff" stroke="#000000" points="240.1215,-163 131.4956,-163 131.4956,-113 240.1215,-113 240.1215,-163"/>
<text text-anchor="middle" x="185.8086" y="-147.8" font-family="Times,serif" font-size="14.00" fill="#000000">NOT J2_DigiJ 1</text>
<text text-anchor="middle" x="185.8086" y="-133.8" font-family="Times,serif" font-size="14.00" fill="#000000">681461.02</text>
<text text-anchor="middle" x="185.8086" y="-119.8" font-family="Times,serif" font-size="14.00" fill="#000000">11001100</text>
</g>
<!-- pTet&#45;&gt;J2_DigiJ -->
<g id="edge12" class="edge">
<title>pTet&#45;&gt;J2_DigiJ</title>
<path fill="none" stroke="#000000" d="M95.6985,-151C95.6985,-151 121.4012,-151 121.4012,-151"/>
<polygon fill="#000000" stroke="#000000" points="121.4012,-154.5001 131.4012,-151 121.4012,-147.5001 121.4012,-154.5001"/>
</g>
<!-- pBAD -->
<g id="node4" class="node">
<title>pBAD</title>
<text text-anchor="middle" x="333.2212" y="-34.8" font-family="Times,serif" font-size="14.00" fill="#000000">INPUT pBAD 0</text>
<text text-anchor="middle" x="333.2212" y="-20.8" font-family="Times,serif" font-size="14.00" fill="#000000"> &#160;304.88</text>
<text text-anchor="middle" x="333.2212" y="-6.8" font-family="Times,serif" font-size="14.00" fill="#000000">00001111</text>
</g>
<!-- pBAD&#45;&gt;S2_SrpR -->
<g id="edge11" class="edge">
<title>pBAD&#45;&gt;S2_SrpR</title>
<path fill="none" stroke="#000000" d="M386.7743,-18C507.8572,-18 792.2354,-18 792.2354,-18 792.2354,-18 792.2354,-59.7873 792.2354,-59.7873"/>
<polygon fill="#000000" stroke="#000000" points="788.7355,-59.7873 792.2354,-69.7873 795.7355,-59.7874 788.7355,-59.7873"/>
</g>
<!-- P2_PhlF -->
<g id="node10" class="node">
<title>P2_PhlF</title>
<polygon fill="#ffffff" stroke="#000000" points="545.1877,-86 438.6384,-86 438.6384,-36 545.1877,-36 545.1877,-86"/>
<text text-anchor="middle" x="491.9131" y="-70.8" font-family="Times,serif" font-size="14.00" fill="#000000">NOT P2_PhlF 1</text>
<text text-anchor="middle" x="491.9131" y="-56.8" font-family="Times,serif" font-size="14.00" fill="#000000"> &#160;204.59</text>
<text text-anchor="middle" x="491.9131" y="-42.8" font-family="Times,serif" font-size="14.00" fill="#000000">11110000</text>
</g>
<!-- pBAD&#45;&gt;P2_PhlF -->
<g id="edge13" class="edge">
<title>pBAD&#45;&gt;P2_PhlF</title>
<path fill="none" stroke="#000000" d="M386.947,-43C386.947,-43 428.5121,-43 428.5121,-43"/>
<polygon fill="#000000" stroke="#000000" points="428.5122,-46.5001 438.5121,-43 428.5121,-39.5001 428.5122,-46.5001"/>
</g>
<!-- S2_SrpR&#45;&gt;YFP -->
<g id="edge1" class="edge">
<title>S2_SrpR&#45;&gt;YFP</title>
<path fill="none" stroke="#000000" d="M847.5037,-86.6667C847.5037,-86.6667 872.9722,-86.6667 872.9722,-86.6667"/>
<polygon fill="#000000" stroke="#000000" points="872.9722,-90.1668 882.9722,-86.6667 872.9721,-83.1668 872.9722,-90.1668"/>
</g>
<!-- S2_SrpR&#45;&gt;S2_SrpR -->
<g id="edge3" class="edge">
<title>S2_SrpR&#45;&gt;S2_SrpR</title>
<path fill="none" stroke="#000000" d="M736.9031,-103.3333C726.7237,-103.3333 719.2354,-103.3333 719.2354,-103.3333 719.2354,-103.3333 719.2354,-137 719.2354,-137 719.2354,-137 866.2354,-137 866.2354,-137 866.2354,-137 866.2354,-103.3333 866.2354,-103.3333 866.2354,-103.3333 857.5583,-103.3333 857.5583,-103.3333"/>
<polygon fill="#000000" stroke="#000000" points="857.5584,-99.8334 847.5583,-103.3333 857.5583,-106.8334 857.5584,-99.8334"/>
</g>
<!-- P1_PhlF -->
<g id="node6" class="node">
<title>P1_PhlF</title>
<polygon fill="#ffffff" stroke="#000000" points="701.0588,-120 593.4451,-120 593.4451,-70 701.0588,-70 701.0588,-120"/>
<text text-anchor="middle" x="647.252" y="-104.8" font-family="Times,serif" font-size="14.00" fill="#000000">NOR P1_PhlF 4</text>
<text text-anchor="middle" x="647.252" y="-90.8" font-family="Times,serif" font-size="14.00" fill="#000000"> &#160;314.90</text>
<text text-anchor="middle" x="647.252" y="-76.8" font-family="Times,serif" font-size="14.00" fill="#000000">00000001</text>
</g>
<!-- P1_PhlF&#45;&gt;S2_SrpR -->
<g id="edge2" class="edge">
<title>P1_PhlF&#45;&gt;S2_SrpR</title>
<path fill="none" stroke="#000000" d="M701.233,-86.6667C701.233,-86.6667 726.7419,-86.6667 726.7419,-86.6667"/>
<polygon fill="#000000" stroke="#000000" points="726.742,-90.1668 736.7419,-86.6667 726.7419,-83.1668 726.742,-90.1668"/>
</g>
<!-- QS2_DigiJQ -->
<g id="node7" class="node">
<title>QS2_DigiJQ</title>
<polygon fill="#ffffff" stroke="#000000" points="557.2842,-154 426.5419,-154 426.5419,-104 557.2842,-104 557.2842,-154"/>
<text text-anchor="middle" x="491.9131" y="-138.8" font-family="Times,serif" font-size="14.00" fill="#000000">NOT QS2_DigiJQ 3</text>
<text text-anchor="middle" x="491.9131" y="-124.8" font-family="Times,serif" font-size="14.00" fill="#000000">105343.11</text>
<text text-anchor="middle" x="491.9131" y="-110.8" font-family="Times,serif" font-size="14.00" fill="#000000">11101110</text>
</g>
<!-- QS2_DigiJQ&#45;&gt;P1_PhlF -->
<g id="edge4" class="edge">
<title>QS2_DigiJQ&#45;&gt;P1_PhlF</title>
<path fill="none" stroke="#000000" d="M557.3405,-112C557.3405,-112 583.1809,-112 583.1809,-112"/>
<polygon fill="#000000" stroke="#000000" points="583.1809,-115.5001 593.1809,-112 583.1809,-108.5001 583.1809,-115.5001"/>
</g>
<!-- Q1_QacR&#45;&gt;QS2_DigiJQ -->
<g id="edge6" class="edge">
<title>Q1_QacR&#45;&gt;QS2_DigiJQ</title>
<path fill="none" stroke="#000000" d="M390.5126,-124.5C390.5126,-124.5 416.3505,-124.5 416.3505,-124.5"/>
<polygon fill="#000000" stroke="#000000" points="416.3505,-128.0001 426.3505,-124.5 416.3505,-121.0001 416.3505,-128.0001"/>
</g>
<!-- Q1_QacR&#45;&gt;Q1_QacR -->
<g id="edge7" class="edge">
<title>Q1_QacR&#45;&gt;Q1_QacR</title>
<path fill="none" stroke="#000000" d="M276.0059,-101C265.7424,-101 258.2354,-101 258.2354,-101 258.2354,-101 258.2354,-90.5 258.2354,-90.5 258.2354,-90.5 409.2354,-90.5 409.2354,-90.5 409.2354,-90.5 409.2354,-99.5 409.2354,-99.5 409.2354,-99.5 400.4453,-99.5 400.4453,-99.5"/>
<polygon fill="#000000" stroke="#000000" points="400.4454,-96.0001 390.4453,-99.5 400.4453,-103.0001 400.4454,-96.0001"/>
</g>
<!-- J2_DigiJ&#45;&gt;Q1_QacR -->
<g id="edge8" class="edge">
<title>J2_DigiJ&#45;&gt;Q1_QacR</title>
<path fill="none" stroke="#000000" d="M240.2808,-129C240.2808,-129 266.0084,-129 266.0084,-129"/>
<polygon fill="#000000" stroke="#000000" points="266.0084,-132.5001 276.0084,-129 266.0084,-125.5001 266.0084,-132.5001"/>
</g>
<!-- P2_PhlF&#45;&gt;P1_PhlF -->
<g id="edge5" class="edge">
<title>P2_PhlF&#45;&gt;P1_PhlF</title>
<path fill="none" stroke="#000000" d="M545.3719,-78C545.3719,-78 583.4311,-78 583.4311,-78"/>
<polygon fill="#000000" stroke="#000000" points="583.4311,-81.5001 593.4311,-78 583.431,-74.5001 583.4311,-81.5001"/>
</g>
</g>
</svg>
