<?xml version="1.0" encoding="UTF-8" standalone="no"?>
<!DOCTYPE svg PUBLIC "-//W3C//DTD SVG 1.1//EN"
 "http://www.w3.org/Graphics/SVG/1.1/DTD/svg11.dtd">
<!-- Generated by graphviz version 2.40.1 (20161225.0304)
 -->
<!-- Title: %3 Pages: 1 -->
<svg width="692pt" height="207pt"
 viewBox="0.00 0.00 692.00 207.00" xmlns="http://www.w3.org/2000/svg" xmlns:xlink="http://www.w3.org/1999/xlink">
<g id="graph0" class="graph" transform="scale(1 1) rotate(0) translate(4 203)">
<title>%3</title>
<polygon fill="#ffffff" stroke="transparent" points="-4,4 -4,-203 688,-203 688,4 -4,4"/>
<!-- YFP -->
<g id="node1" class="node">
<title>YFP</title>
<text text-anchor="middle" x="657" y="-90.8" font-family="Times,serif" font-size="14.00" fill="#000000">YFP</text>
</g>
<!-- pTac -->
<g id="node2" class="node">
<title>pTac</title>
<text text-anchor="middle" x="126" y="-72.8" font-family="Times,serif" font-size="14.00" fill="#000000">pTac</text>
</g>
<!-- Q1_QacR -->
<g id="node8" class="node">
<title>Q1_QacR</title>
<image xlink:href="demo_FixedGatesDigital0x00_001_A000_Q1_QacR_gate.png" width="72px" height="72px" preserveAspectRatio="xMinYMin meet" x="198" y="-167"/>
</g>
<!-- pTac&#45;&gt;Q1_QacR -->
<g id="edge9" class="edge">
<title>pTac&#45;&gt;Q1_QacR</title>
<path fill="none" stroke="#000000" d="M153.3641,-89C175.4961,-89 203,-89 203,-89 203,-89 203,-89.584 203,-89.584"/>
<polygon fill="#000000" stroke="#000000" points="199.5002,-84.8399 203,-94.8399 206.5002,-84.84 199.5002,-84.8399"/>
</g>
<!-- pTet -->
<g id="node3" class="node">
<title>pTet</title>
<text text-anchor="middle" x="27" y="-176.8" font-family="Times,serif" font-size="14.00" fill="#000000">pTet</text>
</g>
<!-- S2_SrpR -->
<g id="node5" class="node">
<title>S2_SrpR</title>
<image xlink:href="demo_FixedGatesDigital0x00_001_A000_S2_SrpR_gate.png" width="72px" height="72px" preserveAspectRatio="xMinYMin meet" x="522" y="-131"/>
</g>
<!-- pTet&#45;&gt;S2_SrpR -->
<g id="edge10" class="edge">
<title>pTet&#45;&gt;S2_SrpR</title>
<path fill="none" stroke="#000000" d="M54.0624,-192C162.2699,-192 558,-192 558,-192 558,-192 558,-141.1192 558,-141.1192"/>
<polygon fill="#000000" stroke="#000000" points="561.5001,-141.1192 558,-131.1192 554.5001,-141.1193 561.5001,-141.1192"/>
</g>
<!-- J2_DigiJ -->
<g id="node9" class="node">
<title>J2_DigiJ</title>
<image xlink:href="demo_FixedGatesDigital0x00_001_A000_J2_DigiJ_gate.png" width="72px" height="72px" preserveAspectRatio="xMinYMin meet" x="90" y="-185"/>
</g>
<!-- pTet&#45;&gt;J2_DigiJ -->
<g id="edge12" class="edge">
<title>pTet&#45;&gt;J2_DigiJ</title>
<path fill="none" stroke="#000000" d="M54.0522,-174C54.0522,-174 79.6982,-174 79.6982,-174"/>
<polygon fill="#000000" stroke="#000000" points="79.6982,-177.5001 89.6982,-174 79.6982,-170.5001 79.6982,-177.5001"/>
</g>
<!-- pBAD -->
<g id="node4" class="node">
<title>pBAD</title>
<text text-anchor="middle" x="234" y="-13.8" font-family="Times,serif" font-size="14.00" fill="#000000">pBAD</text>
</g>
<!-- pBAD&#45;&gt;S2_SrpR -->
<g id="edge11" class="edge">
<title>pBAD&#45;&gt;S2_SrpR</title>
<path fill="none" stroke="#000000" d="M261.0668,-7C338.9369,-7 558,-7 558,-7 558,-7 558,-48.9531 558,-48.9531"/>
<polygon fill="#000000" stroke="#000000" points="554.5001,-48.9531 558,-58.9531 561.5001,-48.9532 554.5001,-48.9531"/>
</g>
<!-- P2_PhlF -->
<g id="node10" class="node">
<title>P2_PhlF</title>
<image xlink:href="demo_FixedGatesDigital0x00_001_A000_P2_PhlF_gate.png" width="72px" height="72px" preserveAspectRatio="xMinYMin meet" x="306" y="-86"/>
</g>
<!-- pBAD&#45;&gt;P2_PhlF -->
<g id="edge13" class="edge">
<title>pBAD&#45;&gt;P2_PhlF</title>
<path fill="none" stroke="#000000" d="M261.253,-25C261.253,-25 295.7747,-25 295.7747,-25"/>
<polygon fill="#000000" stroke="#000000" points="295.7747,-28.5001 305.7747,-25 295.7747,-21.5001 295.7747,-28.5001"/>
</g>
<!-- S2_SrpR&#45;&gt;YFP -->
<g id="edge1" class="edge">
<title>S2_SrpR&#45;&gt;YFP</title>
<path fill="none" stroke="#000000" d="M594.0213,-95C594.0213,-95 619.8547,-95 619.8547,-95"/>
<polygon fill="#000000" stroke="#000000" points="619.8548,-98.5001 629.8547,-95 619.8547,-91.5001 619.8548,-98.5001"/>
</g>
<!-- S2_SrpR&#45;&gt;S2_SrpR -->
<g id="edge3" class="edge">
<title>S2_SrpR&#45;&gt;S2_SrpR</title>
<path fill="none" stroke="#000000" d="M521.9812,-83C512.0758,-83 504,-83 504,-83 504,-83 504,-36.5 504,-36.5 504,-36.5 612,-36.5 612,-36.5 612,-36.5 612,-68 612,-68 612,-68 604.0188,-68 604.0188,-68"/>
<polygon fill="#000000" stroke="#000000" points="604.0188,-64.5001 594.0188,-68 604.0187,-71.5001 604.0188,-64.5001"/>
</g>
<!-- P1_PhlF -->
<g id="node6" class="node">
<title>P1_PhlF</title>
<image xlink:href="demo_FixedGatesDigital0x00_001_A000_P1_PhlF_gate.png" width="72px" height="72px" preserveAspectRatio="xMinYMin meet" x="414" y="-131"/>
</g>
<!-- P1_PhlF&#45;&gt;S2_SrpR -->
<g id="edge2" class="edge">
<title>P1_PhlF&#45;&gt;S2_SrpR</title>
<path fill="none" stroke="#000000" d="M486.2629,-107C486.2629,-107 511.649,-107 511.649,-107"/>
<polygon fill="#000000" stroke="#000000" points="511.649,-110.5001 521.649,-107 511.649,-103.5001 511.649,-110.5001"/>
</g>
<!-- QS2_DigiJQ -->
<g id="node7" class="node">
<title>QS2_DigiJQ</title>
<image xlink:href="demo_FixedGatesDigital0x00_001_A000_QS2_DigiJQ_gate.png" width="72px" height="72px" preserveAspectRatio="xMinYMin meet" x="306" y="-176"/>
</g>
<!-- QS2_DigiJQ&#45;&gt;P1_PhlF -->
<g id="edge4" class="edge">
<title>QS2_DigiJQ&#45;&gt;P1_PhlF</title>
<path fill="none" stroke="#000000" d="M378.2629,-117.5C378.2629,-117.5 403.649,-117.5 403.649,-117.5"/>
<polygon fill="#000000" stroke="#000000" points="403.649,-121.0001 413.649,-117.5 403.649,-114.0001 403.649,-121.0001"/>
</g>
<!-- Q1_QacR&#45;&gt;QS2_DigiJQ -->
<g id="edge6" class="edge">
<title>Q1_QacR&#45;&gt;QS2_DigiJQ</title>
<path fill="none" stroke="#000000" d="M270.2629,-135.5C270.2629,-135.5 295.649,-135.5 295.649,-135.5"/>
<polygon fill="#000000" stroke="#000000" points="295.649,-139.0001 305.649,-135.5 295.649,-132.0001 295.649,-139.0001"/>
</g>
<!-- Q1_QacR&#45;&gt;Q1_QacR -->
<g id="edge7" class="edge">
<title>Q1_QacR&#45;&gt;Q1_QacR</title>
<path fill="none" stroke="#000000" d="M197.9812,-104C188.0758,-104 180,-104 180,-104 180,-104 180,-92 180,-92 180,-92 288,-92 288,-92 288,-92 288,-99.5 288,-99.5 288,-99.5 280.0188,-99.5 280.0188,-99.5"/>
<polygon fill="#000000" stroke="#000000" points="280.0188,-96.0001 270.0188,-99.5 280.0187,-103.0001 280.0188,-96.0001"/>
</g>
<!-- J2_DigiJ&#45;&gt;Q1_QacR -->
<g id="edge8" class="edge">
<title>J2_DigiJ&#45;&gt;Q1_QacR</title>
<path fill="none" stroke="#000000" d="M162.2629,-140C162.2629,-140 187.649,-140 187.649,-140"/>
<polygon fill="#000000" stroke="#000000" points="187.649,-143.5001 197.649,-140 187.649,-136.5001 187.649,-143.5001"/>
</g>
<!-- P2_PhlF&#45;&gt;P1_PhlF -->
<g id="edge5" class="edge">
<title>P2_PhlF&#45;&gt;P1_PhlF</title>
<path fill="none" stroke="#000000" d="M378.2629,-72.5C378.2629,-72.5 403.649,-72.5 403.649,-72.5"/>
<polygon fill="#000000" stroke="#000000" points="403.649,-76.0001 413.649,-72.5 403.649,-69.0001 403.649,-76.0001"/>
</g>
</g>
</svg>
