<?xml version="1.0" encoding="UTF-8" standalone="no"?>
<!DOCTYPE svg PUBLIC "-//W3C//DTD SVG 1.1//EN"
 "http://www.w3.org/Graphics/SVG/1.1/DTD/svg11.dtd">
<!-- Generated by graphviz version 2.40.1 (20161225.0304)
 -->
<!-- Title: %3 Pages: 1 -->
<svg width="765pt" height="152pt"
 viewBox="0.00 0.00 764.88 152.00" xmlns="http://www.w3.org/2000/svg" xmlns:xlink="http://www.w3.org/1999/xlink">
<g id="graph0" class="graph" transform="scale(1 1) rotate(0) translate(4 148)">
<title>%3</title>
<polygon fill="#ffffff" stroke="transparent" points="-4,4 -4,-148 760.8799,-148 760.8799,4 -4,4"/>
<!-- out -->
<g id="node1" class="node">
<title>out</title>
<text text-anchor="middle" x="721.9053" y="-97.8" font-family="Times,serif" font-size="14.00" fill="#000000">out</text>
<text text-anchor="middle" x="721.9053" y="-83.8" font-family="Times,serif" font-size="14.00" fill="#000000">00111110</text>
</g>
<!-- in3 -->
<g id="node2" class="node">
<title>in3</title>
<text text-anchor="middle" x="44.4321" y="-20.8" font-family="Times,serif" font-size="14.00" fill="#000000">INPUT in3 0</text>
<text text-anchor="middle" x="44.4321" y="-6.8" font-family="Times,serif" font-size="14.00" fill="#000000">01010101</text>
</g>
<!-- g5 -->
<g id="node8" class="node">
<title>g5</title>
<polygon fill="#ffffff" stroke="#000000" points="197.1553,-36 125.0995,-36 125.0995,0 197.1553,0 197.1553,-36"/>
<text text-anchor="middle" x="161.1274" y="-20.8" font-family="Times,serif" font-size="14.00" fill="#000000">NOT g5 1</text>
<text text-anchor="middle" x="161.1274" y="-6.8" font-family="Times,serif" font-size="14.00" fill="#000000">10101010</text>
</g>
<!-- in3&#45;&gt;g5 -->
<g id="edge9" class="edge">
<title>in3&#45;&gt;g5</title>
<path fill="none" stroke="#000000" d="M88.8825,-18C88.8825,-18 114.7592,-18 114.7592,-18"/>
<polygon fill="#000000" stroke="#000000" points="114.7592,-21.5001 124.7592,-18 114.7592,-14.5001 114.7592,-21.5001"/>
</g>
<!-- in2 -->
<g id="node3" class="node">
<title>in2</title>
<text text-anchor="middle" x="44.4321" y="-97.8" font-family="Times,serif" font-size="14.00" fill="#000000">INPUT in2 0</text>
<text text-anchor="middle" x="44.4321" y="-83.8" font-family="Times,serif" font-size="14.00" fill="#000000">00110011</text>
</g>
<!-- g7 -->
<g id="node6" class="node">
<title>g7</title>
<polygon fill="#ffffff" stroke="#000000" points="197.1553,-90 125.0995,-90 125.0995,-54 197.1553,-54 197.1553,-90"/>
<text text-anchor="middle" x="161.1274" y="-74.8" font-family="Times,serif" font-size="14.00" fill="#000000">NOT g7 1</text>
<text text-anchor="middle" x="161.1274" y="-60.8" font-family="Times,serif" font-size="14.00" fill="#000000">11001100</text>
</g>
<!-- in2&#45;&gt;g7 -->
<g id="edge12" class="edge">
<title>in2&#45;&gt;g7</title>
<path fill="none" stroke="#000000" d="M88.8825,-83.5C88.8825,-83.5 114.7592,-83.5 114.7592,-83.5"/>
<polygon fill="#000000" stroke="#000000" points="114.7592,-87.0001 124.7592,-83.5 114.7592,-80.0001 114.7592,-87.0001"/>
</g>
<!-- g6 -->
<g id="node7" class="node">
<title>g6</title>
<polygon fill="#ffffff" stroke="#000000" points="431.5941,-144 358.4743,-144 358.4743,-108 431.5941,-108 431.5941,-144"/>
<text text-anchor="middle" x="395.0342" y="-128.8" font-family="Times,serif" font-size="14.00" fill="#000000">NOR g6 1</text>
<text text-anchor="middle" x="395.0342" y="-114.8" font-family="Times,serif" font-size="14.00" fill="#000000">11000000</text>
</g>
<!-- in2&#45;&gt;g6 -->
<g id="edge10" class="edge">
<title>in2&#45;&gt;g6</title>
<path fill="none" stroke="#000000" d="M88.809,-98.6667C180.8203,-98.6667 383.8799,-98.6667 383.8799,-98.6667 383.8799,-98.6667 383.8799,-99.592 383.8799,-99.592"/>
<polygon fill="#000000" stroke="#000000" points="380.38,-97.9204 383.8799,-107.9205 387.38,-97.9205 380.38,-97.9204"/>
</g>
<!-- in1 -->
<g id="node4" class="node">
<title>in1</title>
<text text-anchor="middle" x="277.8228" y="-78.8" font-family="Times,serif" font-size="14.00" fill="#000000">INPUT in1 0</text>
<text text-anchor="middle" x="277.8228" y="-64.8" font-family="Times,serif" font-size="14.00" fill="#000000">00001111</text>
</g>
<!-- g8 -->
<g id="node5" class="node">
<title>g8</title>
<polygon fill="#ffffff" stroke="#000000" points="431.0621,-90 359.0063,-90 359.0063,-54 431.0621,-54 431.0621,-90"/>
<text text-anchor="middle" x="395.0342" y="-74.8" font-family="Times,serif" font-size="14.00" fill="#000000">NOT g8 1</text>
<text text-anchor="middle" x="395.0342" y="-60.8" font-family="Times,serif" font-size="14.00" fill="#000000">11110000</text>
</g>
<!-- in1&#45;&gt;g8 -->
<g id="edge13" class="edge">
<title>in1&#45;&gt;g8</title>
<path fill="none" stroke="#000000" d="M322.4697,-74C322.4697,-74 348.8767,-74 348.8767,-74"/>
<polygon fill="#000000" stroke="#000000" points="348.8768,-77.5001 358.8767,-74 348.8767,-70.5001 348.8768,-77.5001"/>
</g>
<!-- in1&#45;&gt;g6 -->
<g id="edge11" class="edge">
<title>in1&#45;&gt;g6</title>
<path fill="none" stroke="#000000" d="M277.8799,-94.0675C277.8799,-109.2539 277.8799,-128.5 277.8799,-128.5 277.8799,-128.5 348.2873,-128.5 348.2873,-128.5"/>
<polygon fill="#000000" stroke="#000000" points="348.2873,-132.0001 358.2873,-128.5 348.2872,-125.0001 348.2873,-132.0001"/>
</g>
<!-- g2 -->
<g id="node11" class="node">
<title>g2</title>
<polygon fill="#ffffff" stroke="#000000" points="541.1527,-90 468.0329,-90 468.0329,-54 541.1527,-54 541.1527,-90"/>
<text text-anchor="middle" x="504.5928" y="-74.8" font-family="Times,serif" font-size="14.00" fill="#000000">NOR g2 4</text>
<text text-anchor="middle" x="504.5928" y="-60.8" font-family="Times,serif" font-size="14.00" fill="#000000">00000001</text>
</g>
<!-- g8&#45;&gt;g2 -->
<g id="edge5" class="edge">
<title>g8&#45;&gt;g2</title>
<path fill="none" stroke="#000000" d="M431.2114,-72C431.2114,-72 457.7041,-72 457.7041,-72"/>
<polygon fill="#000000" stroke="#000000" points="457.7041,-75.5001 467.7041,-72 457.704,-68.5001 457.7041,-75.5001"/>
</g>
<!-- g4 -->
<g id="node9" class="node">
<title>g4</title>
<polygon fill="#ffffff" stroke="#000000" points="314.3827,-36 241.2628,-36 241.2628,0 314.3827,0 314.3827,-36"/>
<text text-anchor="middle" x="277.8228" y="-20.8" font-family="Times,serif" font-size="14.00" fill="#000000">NOR g4 2</text>
<text text-anchor="middle" x="277.8228" y="-6.8" font-family="Times,serif" font-size="14.00" fill="#000000">00010001</text>
</g>
<!-- g7&#45;&gt;g4 -->
<g id="edge8" class="edge">
<title>g7&#45;&gt;g4</title>
<path fill="none" stroke="#000000" d="M197.3432,-74C207.5253,-74 215.8799,-74 215.8799,-74 215.8799,-74 215.8799,-24 215.8799,-24 215.8799,-24 231.0744,-24 231.0744,-24"/>
<polygon fill="#000000" stroke="#000000" points="231.0745,-27.5001 241.0744,-24 231.0744,-20.5001 231.0745,-27.5001"/>
</g>
<!-- g1 -->
<g id="node12" class="node">
<title>g1</title>
<polygon fill="#ffffff" stroke="#000000" points="650.7113,-113 577.5915,-113 577.5915,-77 650.7113,-77 650.7113,-113"/>
<text text-anchor="middle" x="614.1514" y="-97.8" font-family="Times,serif" font-size="14.00" fill="#000000">NOR g1 5</text>
<text text-anchor="middle" x="614.1514" y="-83.8" font-family="Times,serif" font-size="14.00" fill="#000000">00111110</text>
</g>
<!-- g6&#45;&gt;g1 -->
<g id="edge3" class="edge">
<title>g6&#45;&gt;g1</title>
<path fill="none" stroke="#000000" d="M407.8799,-107.7037C407.8799,-105.1263 407.8799,-103.3333 407.8799,-103.3333 407.8799,-103.3333 567.2742,-103.3333 567.2742,-103.3333"/>
<polygon fill="#000000" stroke="#000000" points="567.2742,-106.8334 577.2742,-103.3333 567.2741,-99.8334 567.2742,-106.8334"/>
</g>
<!-- g5&#45;&gt;g4 -->
<g id="edge7" class="edge">
<title>g5&#45;&gt;g4</title>
<path fill="none" stroke="#000000" d="M197.4109,-12C197.4109,-12 231.1598,-12 231.1598,-12"/>
<polygon fill="#000000" stroke="#000000" points="231.1599,-15.5001 241.1598,-12 231.1598,-8.5001 231.1599,-15.5001"/>
</g>
<!-- g3 -->
<g id="node10" class="node">
<title>g3</title>
<polygon fill="#ffffff" stroke="#000000" points="431.0621,-36 359.0063,-36 359.0063,0 431.0621,0 431.0621,-36"/>
<text text-anchor="middle" x="395.0342" y="-20.8" font-family="Times,serif" font-size="14.00" fill="#000000">NOT g3 3</text>
<text text-anchor="middle" x="395.0342" y="-6.8" font-family="Times,serif" font-size="14.00" fill="#000000">11101110</text>
</g>
<!-- g4&#45;&gt;g3 -->
<g id="edge6" class="edge">
<title>g4&#45;&gt;g3</title>
<path fill="none" stroke="#000000" d="M314.5876,-18C314.5876,-18 348.8017,-18 348.8017,-18"/>
<polygon fill="#000000" stroke="#000000" points="348.8018,-21.5001 358.8017,-18 348.8017,-14.5001 348.8018,-21.5001"/>
</g>
<!-- g3&#45;&gt;g2 -->
<g id="edge4" class="edge">
<title>g3&#45;&gt;g2</title>
<path fill="none" stroke="#000000" d="M431.3062,-18C463.3018,-18 504.8799,-18 504.8799,-18 504.8799,-18 504.8799,-43.7181 504.8799,-43.7181"/>
<polygon fill="#000000" stroke="#000000" points="501.38,-43.718 504.8799,-53.7181 508.38,-43.7181 501.38,-43.718"/>
</g>
<!-- g2&#45;&gt;g1 -->
<g id="edge2" class="edge">
<title>g2&#45;&gt;g1</title>
<path fill="none" stroke="#000000" d="M541.379,-83.5C541.379,-83.5 567.2758,-83.5 567.2758,-83.5"/>
<polygon fill="#000000" stroke="#000000" points="567.2758,-87.0001 577.2758,-83.5 567.2757,-80.0001 567.2758,-87.0001"/>
</g>
<!-- g1&#45;&gt;out -->
<g id="edge1" class="edge">
<title>g1&#45;&gt;out</title>
<path fill="none" stroke="#000000" d="M650.9328,-95C650.9328,-95 676.7449,-95 676.7449,-95"/>
<polygon fill="#000000" stroke="#000000" points="676.745,-98.5001 686.7449,-95 676.7449,-91.5001 676.745,-98.5001"/>
</g>
</g>
</svg>
