<?xml version="1.0" encoding="UTF-8" standalone="no"?>
<!DOCTYPE svg PUBLIC "-//W3C//DTD SVG 1.1//EN"
 "http://www.w3.org/Graphics/SVG/1.1/DTD/svg11.dtd">
<!-- Generated by graphviz version 2.40.1 (20161225.0304)
 -->
<!-- Title: %3 Pages: 1 -->
<svg width="1157pt" height="271pt"
 viewBox="0.00 0.00 1156.69 271.00" xmlns="http://www.w3.org/2000/svg" xmlns:xlink="http://www.w3.org/1999/xlink">
<g id="graph0" class="graph" transform="scale(1 1) rotate(0) translate(4 267)">
<title>%3</title>
<polygon fill="#ffffff" stroke="transparent" points="-4,4 -4,-267 1152.6875,-267 1152.6875,4 -4,4"/>
<!-- YFP -->
<g id="node1" class="node">
<title>YFP</title>
<text text-anchor="middle" x="1107.4375" y="-75.8" font-family="Times,serif" font-size="14.00" fill="#000000">YFP</text>
<text text-anchor="middle" x="1107.4375" y="-61.8" font-family="Times,serif" font-size="14.00" fill="#000000">2313365.56</text>
<text text-anchor="middle" x="1107.4375" y="-47.8" font-family="Times,serif" font-size="14.00" fill="#000000">01101001</text>
</g>
<!-- pTac -->
<g id="node2" class="node">
<title>pTac</title>
<text text-anchor="middle" x="48.9883" y="-230.8" font-family="Times,serif" font-size="14.00" fill="#000000">INPUT pTac 0</text>
<text text-anchor="middle" x="48.9883" y="-216.8" font-family="Times,serif" font-size="14.00" fill="#000000"> &#160;823.53</text>
<text text-anchor="middle" x="48.9883" y="-202.8" font-family="Times,serif" font-size="14.00" fill="#000000">01010101</text>
</g>
<!-- A1_AmtR -->
<g id="node11" class="node">
<title>A1_AmtR</title>
<polygon fill="#ffffff" stroke="#000000" points="256.1016,-195 138.8398,-195 138.8398,-145 256.1016,-145 256.1016,-195"/>
<text text-anchor="middle" x="197.4707" y="-179.8" font-family="Times,serif" font-size="14.00" fill="#000000">NOR A1_AmtR 1</text>
<text text-anchor="middle" x="197.4707" y="-165.8" font-family="Times,serif" font-size="14.00" fill="#000000"> &#160;&#160;53.44</text>
<text text-anchor="middle" x="197.4707" y="-151.8" font-family="Times,serif" font-size="14.00" fill="#000000">10001000</text>
</g>
<!-- pTac&#45;&gt;A1_AmtR -->
<g id="edge11" class="edge">
<title>pTac&#45;&gt;A1_AmtR</title>
<path fill="none" stroke="#000000" d="M49.6875,-195.9867C49.6875,-186.527 49.6875,-178 49.6875,-178 49.6875,-178 128.6382,-178 128.6382,-178"/>
<polygon fill="#000000" stroke="#000000" points="128.6383,-181.5001 138.6382,-178 128.6382,-174.5001 128.6383,-181.5001"/>
</g>
<!-- B3_BM3R1 -->
<g id="node12" class="node">
<title>B3_BM3R1</title>
<polygon fill="#ffffff" stroke="#000000" points="260.959,-263 133.9824,-263 133.9824,-213 260.959,-213 260.959,-263"/>
<text text-anchor="middle" x="197.4707" y="-247.8" font-family="Times,serif" font-size="14.00" fill="#000000">NOT B3_BM3R1 1</text>
<text text-anchor="middle" x="197.4707" y="-233.8" font-family="Times,serif" font-size="14.00" fill="#000000"> &#160;&#160;78.09</text>
<text text-anchor="middle" x="197.4707" y="-219.8" font-family="Times,serif" font-size="14.00" fill="#000000">10101010</text>
</g>
<!-- pTac&#45;&gt;B3_BM3R1 -->
<g id="edge15" class="edge">
<title>pTac&#45;&gt;B3_BM3R1</title>
<path fill="none" stroke="#000000" d="M98.0185,-229.5C98.0185,-229.5 123.9287,-229.5 123.9287,-229.5"/>
<polygon fill="#000000" stroke="#000000" points="123.9287,-233.0001 133.9287,-229.5 123.9287,-226.0001 123.9287,-233.0001"/>
</g>
<!-- pTet -->
<g id="node3" class="node">
<title>pTet</title>
<text text-anchor="middle" x="48.9883" y="-145.8" font-family="Times,serif" font-size="14.00" fill="#000000">INPUT pTet 0</text>
<text text-anchor="middle" x="48.9883" y="-131.8" font-family="Times,serif" font-size="14.00" fill="#000000"> 3384.62</text>
<text text-anchor="middle" x="48.9883" y="-117.8" font-family="Times,serif" font-size="14.00" fill="#000000">00110011</text>
</g>
<!-- pTet&#45;&gt;A1_AmtR -->
<g id="edge12" class="edge">
<title>pTet&#45;&gt;A1_AmtR</title>
<path fill="none" stroke="#000000" d="M96.7864,-153C96.7864,-153 128.8431,-153 128.8431,-153"/>
<polygon fill="#000000" stroke="#000000" points="128.8432,-156.5001 138.8431,-153 128.8431,-149.5001 128.8432,-156.5001"/>
</g>
<!-- I1_IcaRA -->
<g id="node13" class="node">
<title>I1_IcaRA</title>
<polygon fill="#ffffff" stroke="#000000" points="253.9316,-127 141.0098,-127 141.0098,-77 253.9316,-77 253.9316,-127"/>
<text text-anchor="middle" x="197.4707" y="-111.8" font-family="Times,serif" font-size="14.00" fill="#000000">NOT I1_IcaRA 1</text>
<text text-anchor="middle" x="197.4707" y="-97.8" font-family="Times,serif" font-size="14.00" fill="#000000"> &#160;&#160;24.24</text>
<text text-anchor="middle" x="197.4707" y="-83.8" font-family="Times,serif" font-size="14.00" fill="#000000">11001100</text>
</g>
<!-- pTet&#45;&gt;I1_IcaRA -->
<g id="edge16" class="edge">
<title>pTet&#45;&gt;I1_IcaRA</title>
<path fill="none" stroke="#000000" d="M96.7864,-119C96.7864,-119 130.9553,-119 130.9553,-119"/>
<polygon fill="#000000" stroke="#000000" points="130.9554,-122.5001 140.9553,-119 130.9553,-115.5001 130.9554,-122.5001"/>
</g>
<!-- pBAD -->
<g id="node4" class="node">
<title>pBAD</title>
<text text-anchor="middle" x="514.0684" y="-68.8" font-family="Times,serif" font-size="14.00" fill="#000000">INPUT pBAD 0</text>
<text text-anchor="middle" x="514.0684" y="-54.8" font-family="Times,serif" font-size="14.00" fill="#000000"> &#160;304.88</text>
<text text-anchor="middle" x="514.0684" y="-40.8" font-family="Times,serif" font-size="14.00" fill="#000000">00001111</text>
</g>
<!-- P3_PhlF -->
<g id="node7" class="node">
<title>P3_PhlF</title>
<polygon fill="#ffffff" stroke="#000000" points="716.197,-118 608.5833,-118 608.5833,-68 716.197,-68 716.197,-118"/>
<text text-anchor="middle" x="662.3901" y="-102.8" font-family="Times,serif" font-size="14.00" fill="#000000">NOR P3_PhlF 4</text>
<text text-anchor="middle" x="662.3901" y="-88.8" font-family="Times,serif" font-size="14.00" fill="#000000"> &#160;315.22</text>
<text text-anchor="middle" x="662.3901" y="-74.8" font-family="Times,serif" font-size="14.00" fill="#000000">10010000</text>
</g>
<!-- pBAD&#45;&gt;P3_PhlF -->
<g id="edge5" class="edge">
<title>pBAD&#45;&gt;P3_PhlF</title>
<path fill="none" stroke="#000000" d="M567.6159,-76C567.6159,-76 598.423,-76 598.423,-76"/>
<polygon fill="#000000" stroke="#000000" points="598.423,-79.5001 608.423,-76 598.423,-72.5001 598.423,-79.5001"/>
</g>
<!-- L1_LitR -->
<g id="node14" class="node">
<title>L1_LitR</title>
<polygon fill="#ffffff" stroke="#000000" points="715.6375,-50 609.1428,-50 609.1428,0 715.6375,0 715.6375,-50"/>
<text text-anchor="middle" x="662.3901" y="-34.8" font-family="Times,serif" font-size="14.00" fill="#000000">NOT L1_LitR 1</text>
<text text-anchor="middle" x="662.3901" y="-20.8" font-family="Times,serif" font-size="14.00" fill="#000000"> &#160;&#160;54.50</text>
<text text-anchor="middle" x="662.3901" y="-6.8" font-family="Times,serif" font-size="14.00" fill="#000000">11110000</text>
</g>
<!-- pBAD&#45;&gt;L1_LitR -->
<g id="edge17" class="edge">
<title>pBAD&#45;&gt;L1_LitR</title>
<path fill="none" stroke="#000000" d="M567.6159,-42C567.6159,-42 598.9212,-42 598.9212,-42"/>
<polygon fill="#000000" stroke="#000000" points="598.9212,-45.5001 608.9212,-42 598.9211,-38.5001 598.9212,-45.5001"/>
</g>
<!-- J1_DigiJ -->
<g id="node5" class="node">
<title>J1_DigiJ</title>
<polygon fill="#ffffff" stroke="#000000" points="1030.3604,-91 920.6699,-91 920.6699,-41 1030.3604,-41 1030.3604,-91"/>
<text text-anchor="middle" x="975.5151" y="-75.8" font-family="Times,serif" font-size="14.00" fill="#000000">NOR J1_DigiJ 6</text>
<text text-anchor="middle" x="975.5151" y="-61.8" font-family="Times,serif" font-size="14.00" fill="#000000">2313365.56</text>
<text text-anchor="middle" x="975.5151" y="-47.8" font-family="Times,serif" font-size="14.00" fill="#000000">01101001</text>
</g>
<!-- J1_DigiJ&#45;&gt;YFP -->
<g id="edge1" class="edge">
<title>J1_DigiJ&#45;&gt;YFP</title>
<path fill="none" stroke="#000000" d="M1030.316,-66C1030.316,-66 1056.2856,-66 1056.2856,-66"/>
<polygon fill="#000000" stroke="#000000" points="1056.2857,-69.5001 1066.2856,-66 1056.2856,-62.5001 1056.2857,-69.5001"/>
</g>
<!-- QS1_DigiJQ -->
<g id="node6" class="node">
<title>QS1_DigiJQ</title>
<polygon fill="#ffffff" stroke="#000000" points="884.7945,-65 752.9878,-65 752.9878,-15 884.7945,-15 884.7945,-65"/>
<text text-anchor="middle" x="818.8911" y="-49.8" font-family="Times,serif" font-size="14.00" fill="#000000">NOR QS1_DigiJQ 5</text>
<text text-anchor="middle" x="818.8911" y="-35.8" font-family="Times,serif" font-size="14.00" fill="#000000">11828.18</text>
<text text-anchor="middle" x="818.8911" y="-21.8" font-family="Times,serif" font-size="14.00" fill="#000000">00000110</text>
</g>
<!-- QS1_DigiJQ&#45;&gt;J1_DigiJ -->
<g id="edge3" class="edge">
<title>QS1_DigiJQ&#45;&gt;J1_DigiJ</title>
<path fill="none" stroke="#000000" d="M884.8599,-53C884.8599,-53 910.5104,-53 910.5104,-53"/>
<polygon fill="#000000" stroke="#000000" points="910.5105,-56.5001 920.5104,-53 910.5104,-49.5001 910.5105,-56.5001"/>
</g>
<!-- P3_PhlF&#45;&gt;J1_DigiJ -->
<g id="edge2" class="edge">
<title>P3_PhlF&#45;&gt;J1_DigiJ</title>
<path fill="none" stroke="#000000" d="M716.2182,-79.5C716.2182,-79.5 910.8149,-79.5 910.8149,-79.5"/>
<polygon fill="#000000" stroke="#000000" points="910.8149,-83.0001 920.8149,-79.5 910.8148,-76.0001 910.8149,-83.0001"/>
</g>
<!-- S4_SrpR -->
<g id="node8" class="node">
<title>S4_SrpR</title>
<polygon fill="#ffffff" stroke="#000000" points="716.9888,-186 607.7915,-186 607.7915,-136 716.9888,-136 716.9888,-186"/>
<text text-anchor="middle" x="662.3901" y="-170.8" font-family="Times,serif" font-size="14.00" fill="#000000">NOT S4_SrpR 4</text>
<text text-anchor="middle" x="662.3901" y="-156.8" font-family="Times,serif" font-size="14.00" fill="#000000"> &#160;250.94</text>
<text text-anchor="middle" x="662.3901" y="-142.8" font-family="Times,serif" font-size="14.00" fill="#000000">10011001</text>
</g>
<!-- S4_SrpR&#45;&gt;QS1_DigiJQ -->
<g id="edge6" class="edge">
<title>S4_SrpR&#45;&gt;QS1_DigiJQ</title>
<path fill="none" stroke="#000000" d="M716.9637,-161C762.3949,-161 819.6875,-161 819.6875,-161 819.6875,-161 819.6875,-75.0713 819.6875,-75.0713"/>
<polygon fill="#000000" stroke="#000000" points="823.1876,-75.0712 819.6875,-65.0713 816.1876,-75.0713 823.1876,-75.0712"/>
</g>
<!-- Q2_QacR -->
<g id="node9" class="node">
<title>Q2_QacR</title>
<polygon fill="#ffffff" stroke="#000000" points="571.6142,-169 456.5225,-169 456.5225,-119 571.6142,-119 571.6142,-169"/>
<text text-anchor="middle" x="514.0684" y="-153.8" font-family="Times,serif" font-size="14.00" fill="#000000">NOR Q2_QacR 3</text>
<text text-anchor="middle" x="514.0684" y="-139.8" font-family="Times,serif" font-size="14.00" fill="#000000"> &#160;&#160;42.01</text>
<text text-anchor="middle" x="514.0684" y="-125.8" font-family="Times,serif" font-size="14.00" fill="#000000">01100110</text>
</g>
<!-- Q2_QacR&#45;&gt;P3_PhlF -->
<g id="edge4" class="edge">
<title>Q2_QacR&#45;&gt;P3_PhlF</title>
<path fill="none" stroke="#000000" d="M571.954,-127.5C613.6837,-127.5 662.6875,-127.5 662.6875,-127.5 662.6875,-127.5 662.6875,-126.5573 662.6875,-126.5573"/>
<polygon fill="#000000" stroke="#000000" points="666.1876,-128.0727 662.6875,-118.0727 659.1876,-128.0728 666.1876,-128.0727"/>
</g>
<!-- Q2_QacR&#45;&gt;S4_SrpR -->
<g id="edge8" class="edge">
<title>Q2_QacR&#45;&gt;S4_SrpR</title>
<path fill="none" stroke="#000000" d="M571.8381,-152.5C571.8381,-152.5 597.4504,-152.5 597.4504,-152.5"/>
<polygon fill="#000000" stroke="#000000" points="597.4504,-156.0001 607.4504,-152.5 597.4503,-149.0001 597.4504,-156.0001"/>
</g>
<!-- H1_HlyIIR -->
<g id="node10" class="node">
<title>H1_HlyIIR</title>
<polygon fill="#ffffff" stroke="#000000" points="420.4619,-142 296.7989,-142 296.7989,-92 420.4619,-92 420.4619,-142"/>
<text text-anchor="middle" x="358.6304" y="-126.8" font-family="Times,serif" font-size="14.00" fill="#000000">NOR H1_HlyIIR 2</text>
<text text-anchor="middle" x="358.6304" y="-112.8" font-family="Times,serif" font-size="14.00" fill="#000000"> &#160;&#160;18.65</text>
<text text-anchor="middle" x="358.6304" y="-98.8" font-family="Times,serif" font-size="14.00" fill="#000000">00010001</text>
</g>
<!-- H1_HlyIIR&#45;&gt;Q2_QacR -->
<g id="edge10" class="edge">
<title>H1_HlyIIR&#45;&gt;Q2_QacR</title>
<path fill="none" stroke="#000000" d="M420.5102,-130.5C420.5102,-130.5 446.4409,-130.5 446.4409,-130.5"/>
<polygon fill="#000000" stroke="#000000" points="446.441,-134.0001 456.4409,-130.5 446.4409,-127.0001 446.441,-134.0001"/>
</g>
<!-- A1_AmtR&#45;&gt;Q2_QacR -->
<g id="edge9" class="edge">
<title>A1_AmtR&#45;&gt;Q2_QacR</title>
<path fill="none" stroke="#000000" d="M256.2783,-157C256.2783,-157 446.3769,-157 446.3769,-157"/>
<polygon fill="#000000" stroke="#000000" points="446.377,-160.5001 456.3769,-157 446.3769,-153.5001 446.377,-160.5001"/>
</g>
<!-- B3_BM3R1&#45;&gt;H1_HlyIIR -->
<g id="edge13" class="edge">
<title>B3_BM3R1&#45;&gt;H1_HlyIIR</title>
<path fill="none" stroke="#000000" d="M261.1879,-238C306.2507,-238 358.6875,-238 358.6875,-238 358.6875,-238 358.6875,-152.0713 358.6875,-152.0713"/>
<polygon fill="#000000" stroke="#000000" points="362.1876,-152.0712 358.6875,-142.0713 355.1876,-152.0713 362.1876,-152.0712"/>
</g>
<!-- I1_IcaRA&#45;&gt;H1_HlyIIR -->
<g id="edge14" class="edge">
<title>I1_IcaRA&#45;&gt;H1_HlyIIR</title>
<path fill="none" stroke="#000000" d="M254.2896,-109.5C254.2896,-109.5 286.8475,-109.5 286.8475,-109.5"/>
<polygon fill="#000000" stroke="#000000" points="286.8475,-113.0001 296.8475,-109.5 286.8475,-106.0001 286.8475,-113.0001"/>
</g>
<!-- L1_LitR&#45;&gt;QS1_DigiJQ -->
<g id="edge7" class="edge">
<title>L1_LitR&#45;&gt;QS1_DigiJQ</title>
<path fill="none" stroke="#000000" d="M715.8112,-32.5C715.8112,-32.5 742.9751,-32.5 742.9751,-32.5"/>
<polygon fill="#000000" stroke="#000000" points="742.9751,-36.0001 752.9751,-32.5 742.975,-29.0001 742.9751,-36.0001"/>
</g>
</g>
</svg>
