<?xml version="1.0" encoding="UTF-8" standalone="no"?>
<!DOCTYPE svg PUBLIC "-//W3C//DTD SVG 1.1//EN"
 "http://www.w3.org/Graphics/SVG/1.1/DTD/svg11.dtd">
<!-- Generated by graphviz version 2.40.1 (20161225.0304)
 -->
<!-- Title: %3 Pages: 1 -->
<svg width="800pt" height="332pt"
 viewBox="0.00 0.00 800.00 332.00" xmlns="http://www.w3.org/2000/svg" xmlns:xlink="http://www.w3.org/1999/xlink">
<g id="graph0" class="graph" transform="scale(1 1) rotate(0) translate(4 328)">
<title>%3</title>
<polygon fill="#ffffff" stroke="transparent" points="-4,4 -4,-328 796,-328 796,4 -4,4"/>
<!-- YFP -->
<g id="node1" class="node">
<title>YFP</title>
<text text-anchor="middle" x="765" y="-89.8" font-family="Times,serif" font-size="14.00" fill="#000000">YFP</text>
</g>
<!-- pTac -->
<g id="node2" class="node">
<title>pTac</title>
<text text-anchor="middle" x="27" y="-229.8" font-family="Times,serif" font-size="14.00" fill="#000000">pTac</text>
</g>
<!-- A1_AmtR -->
<g id="node11" class="node">
<title>A1_AmtR</title>
<image xlink:href="SimAnnealing_1-alu_A000_xfer_model_A1_AmtR.png" width="72px" height="72px" preserveAspectRatio="xMinYMin meet" x="90" y="-234"/>
</g>
<!-- pTac&#45;&gt;A1_AmtR -->
<g id="edge11" class="edge">
<title>pTac&#45;&gt;A1_AmtR</title>
<path fill="none" stroke="#000000" d="M54.0522,-225C54.0522,-225 79.6982,-225 79.6982,-225"/>
<polygon fill="#000000" stroke="#000000" points="79.6982,-228.5001 89.6982,-225 79.6982,-221.5001 79.6982,-228.5001"/>
</g>
<!-- B3_BM3R1 -->
<g id="node12" class="node">
<title>B3_BM3R1</title>
<image xlink:href="SimAnnealing_1-alu_A000_xfer_model_B3_BM3R1.png" width="72px" height="72px" preserveAspectRatio="xMinYMin meet" x="90" y="-324"/>
</g>
<!-- pTac&#45;&gt;B3_BM3R1 -->
<g id="edge15" class="edge">
<title>pTac&#45;&gt;B3_BM3R1</title>
<path fill="none" stroke="#000000" d="M54.0522,-243C83.3643,-243 126,-243 126,-243 126,-243 126,-243.8676 126,-243.8676"/>
<polygon fill="#000000" stroke="#000000" points="122.5001,-241.6764 126,-251.6765 129.5001,-241.6765 122.5001,-241.6764"/>
</g>
<!-- pTet -->
<g id="node3" class="node">
<title>pTet</title>
<text text-anchor="middle" x="27" y="-157.8" font-family="Times,serif" font-size="14.00" fill="#000000">pTet</text>
</g>
<!-- pTet&#45;&gt;A1_AmtR -->
<g id="edge12" class="edge">
<title>pTet&#45;&gt;A1_AmtR</title>
<path fill="none" stroke="#000000" d="M54.0522,-171C54.0522,-171 79.6982,-171 79.6982,-171"/>
<polygon fill="#000000" stroke="#000000" points="79.6982,-174.5001 89.6982,-171 79.6982,-167.5001 79.6982,-174.5001"/>
</g>
<!-- I1_IcaRA -->
<g id="node13" class="node">
<title>I1_IcaRA</title>
<image xlink:href="SimAnnealing_1-alu_A000_xfer_model_I1_IcaRA.png" width="72px" height="72px" preserveAspectRatio="xMinYMin meet" x="90" y="-144"/>
</g>
<!-- pTet&#45;&gt;I1_IcaRA -->
<g id="edge16" class="edge">
<title>pTet&#45;&gt;I1_IcaRA</title>
<path fill="none" stroke="#000000" d="M54.0522,-153C83.3643,-153 126,-153 126,-153 126,-153 126,-152.1324 126,-152.1324"/>
<polygon fill="#000000" stroke="#000000" points="129.5001,-154.3235 126,-144.3235 122.5001,-154.3236 129.5001,-154.3235"/>
</g>
<!-- pBAD -->
<g id="node4" class="node">
<title>pBAD</title>
<text text-anchor="middle" x="342" y="-80.8" font-family="Times,serif" font-size="14.00" fill="#000000">pBAD</text>
</g>
<!-- P3_PhlF -->
<g id="node7" class="node">
<title>P3_PhlF</title>
<image xlink:href="SimAnnealing_1-alu_A000_xfer_model_P3_PhlF.png" width="72px" height="72px" preserveAspectRatio="xMinYMin meet" x="414" y="-162"/>
</g>
<!-- pBAD&#45;&gt;P3_PhlF -->
<g id="edge5" class="edge">
<title>pBAD&#45;&gt;P3_PhlF</title>
<path fill="none" stroke="#000000" d="M369.253,-96.5C369.253,-96.5 403.7747,-96.5 403.7747,-96.5"/>
<polygon fill="#000000" stroke="#000000" points="403.7747,-100.0001 413.7747,-96.5 403.7747,-93.0001 403.7747,-100.0001"/>
</g>
<!-- L1_LitR -->
<g id="node14" class="node">
<title>L1_LitR</title>
<image xlink:href="SimAnnealing_1-alu_A000_xfer_model_L1_LitR.png" width="72px" height="72px" preserveAspectRatio="xMinYMin meet" x="414" y="-72"/>
</g>
<!-- pBAD&#45;&gt;L1_LitR -->
<g id="edge17" class="edge">
<title>pBAD&#45;&gt;L1_LitR</title>
<path fill="none" stroke="#000000" d="M369.253,-81C401.2471,-81 450,-81 450,-81 450,-81 450,-80.1324 450,-80.1324"/>
<polygon fill="#000000" stroke="#000000" points="453.5001,-82.3235 450,-72.3235 446.5001,-82.3236 453.5001,-82.3235"/>
</g>
<!-- J1_DigiJ -->
<g id="node5" class="node">
<title>J1_DigiJ</title>
<image xlink:href="SimAnnealing_1-alu_A000_xfer_model_J1_DigiJ.png" width="72px" height="72px" preserveAspectRatio="xMinYMin meet" x="630" y="-130"/>
</g>
<!-- J1_DigiJ&#45;&gt;YFP -->
<g id="edge1" class="edge">
<title>J1_DigiJ&#45;&gt;YFP</title>
<path fill="none" stroke="#000000" d="M702.0213,-94C702.0213,-94 727.8547,-94 727.8547,-94"/>
<polygon fill="#000000" stroke="#000000" points="727.8548,-97.5001 737.8547,-94 727.8547,-90.5001 727.8548,-97.5001"/>
</g>
<!-- QS1_DigiJQ -->
<g id="node6" class="node">
<title>QS1_DigiJQ</title>
<image xlink:href="SimAnnealing_1-alu_A000_xfer_model_QS1_DigiJQ.png" width="72px" height="72px" preserveAspectRatio="xMinYMin meet" x="522" y="-98"/>
</g>
<!-- QS1_DigiJQ&#45;&gt;J1_DigiJ -->
<g id="edge3" class="edge">
<title>QS1_DigiJQ&#45;&gt;J1_DigiJ</title>
<path fill="none" stroke="#000000" d="M594.2629,-78C594.2629,-78 619.649,-78 619.649,-78"/>
<polygon fill="#000000" stroke="#000000" points="619.649,-81.5001 629.649,-78 619.649,-74.5001 619.649,-81.5001"/>
</g>
<!-- P3_PhlF&#45;&gt;J1_DigiJ -->
<g id="edge2" class="edge">
<title>P3_PhlF&#45;&gt;J1_DigiJ</title>
<path fill="none" stroke="#000000" d="M486.1535,-114C486.1535,-114 619.7285,-114 619.7285,-114"/>
<polygon fill="#000000" stroke="#000000" points="619.7285,-117.5001 629.7285,-114 619.7285,-110.5001 619.7285,-117.5001"/>
</g>
<!-- S4_SrpR -->
<g id="node8" class="node">
<title>S4_SrpR</title>
<image xlink:href="SimAnnealing_1-alu_A000_xfer_model_S4_SrpR.png" width="72px" height="72px" preserveAspectRatio="xMinYMin meet" x="414" y="-252"/>
</g>
<!-- S4_SrpR&#45;&gt;QS1_DigiJQ -->
<g id="edge6" class="edge">
<title>S4_SrpR&#45;&gt;QS1_DigiJQ</title>
<path fill="none" stroke="#000000" d="M486.2629,-216C517.638,-216 558,-216 558,-216 558,-216 558,-108.1062 558,-108.1062"/>
<polygon fill="#000000" stroke="#000000" points="561.5001,-108.1061 558,-98.1062 554.5001,-108.1062 561.5001,-108.1061"/>
</g>
<!-- Q2_QacR -->
<g id="node9" class="node">
<title>Q2_QacR</title>
<image xlink:href="SimAnnealing_1-alu_A000_xfer_model_Q2_QacR.png" width="72px" height="72px" preserveAspectRatio="xMinYMin meet" x="306" y="-202"/>
</g>
<!-- Q2_QacR&#45;&gt;P3_PhlF -->
<g id="edge4" class="edge">
<title>Q2_QacR&#45;&gt;P3_PhlF</title>
<path fill="none" stroke="#000000" d="M378.2629,-146C378.2629,-146 403.649,-146 403.649,-146"/>
<polygon fill="#000000" stroke="#000000" points="403.649,-149.5001 413.649,-146 403.649,-142.5001 403.649,-149.5001"/>
</g>
<!-- Q2_QacR&#45;&gt;S4_SrpR -->
<g id="edge8" class="edge">
<title>Q2_QacR&#45;&gt;S4_SrpR</title>
<path fill="none" stroke="#000000" d="M378.2629,-191C378.2629,-191 403.649,-191 403.649,-191"/>
<polygon fill="#000000" stroke="#000000" points="403.649,-194.5001 413.649,-191 403.649,-187.5001 403.649,-194.5001"/>
</g>
<!-- H1_HlyIIR -->
<g id="node10" class="node">
<title>H1_HlyIIR</title>
<image xlink:href="SimAnnealing_1-alu_A000_xfer_model_H1_HlyIIR.png" width="72px" height="72px" preserveAspectRatio="xMinYMin meet" x="198" y="-170"/>
</g>
<!-- H1_HlyIIR&#45;&gt;Q2_QacR -->
<g id="edge10" class="edge">
<title>H1_HlyIIR&#45;&gt;Q2_QacR</title>
<path fill="none" stroke="#000000" d="M270.2629,-150C270.2629,-150 295.649,-150 295.649,-150"/>
<polygon fill="#000000" stroke="#000000" points="295.649,-153.5001 305.649,-150 295.649,-146.5001 295.649,-153.5001"/>
</g>
<!-- A1_AmtR&#45;&gt;Q2_QacR -->
<g id="edge9" class="edge">
<title>A1_AmtR&#45;&gt;Q2_QacR</title>
<path fill="none" stroke="#000000" d="M162.1535,-186C162.1535,-186 295.7285,-186 295.7285,-186"/>
<polygon fill="#000000" stroke="#000000" points="295.7285,-189.5001 305.7285,-186 295.7285,-182.5001 295.7285,-189.5001"/>
</g>
<!-- B3_BM3R1&#45;&gt;H1_HlyIIR -->
<g id="edge13" class="edge">
<title>B3_BM3R1&#45;&gt;H1_HlyIIR</title>
<path fill="none" stroke="#000000" d="M162.2629,-288C193.638,-288 234,-288 234,-288 234,-288 234,-180.1062 234,-180.1062"/>
<polygon fill="#000000" stroke="#000000" points="237.5001,-180.1061 234,-170.1062 230.5001,-180.1062 237.5001,-180.1061"/>
</g>
<!-- I1_IcaRA&#45;&gt;H1_HlyIIR -->
<g id="edge14" class="edge">
<title>I1_IcaRA&#45;&gt;H1_HlyIIR</title>
<path fill="none" stroke="#000000" d="M162.2629,-121C162.2629,-121 187.649,-121 187.649,-121"/>
<polygon fill="#000000" stroke="#000000" points="187.649,-124.5001 197.649,-121 187.649,-117.5001 187.649,-124.5001"/>
</g>
<!-- L1_LitR&#45;&gt;QS1_DigiJQ -->
<g id="edge7" class="edge">
<title>L1_LitR&#45;&gt;QS1_DigiJQ</title>
<path fill="none" stroke="#000000" d="M486.2629,-49C486.2629,-49 511.649,-49 511.649,-49"/>
<polygon fill="#000000" stroke="#000000" points="511.649,-52.5001 521.649,-49 511.649,-45.5001 511.649,-52.5001"/>
</g>
</g>
</svg>
