<?xml version="1.0" encoding="UTF-8" standalone="no"?>
<!DOCTYPE svg PUBLIC "-//W3C//DTD SVG 1.1//EN"
 "http://www.w3.org/Graphics/SVG/1.1/DTD/svg11.dtd">
<!-- Generated by graphviz version 2.40.1 (20161225.0304)
 -->
<!-- Title: %3 Pages: 1 -->
<svg width="883pt" height="183pt"
 viewBox="0.00 0.00 882.98 183.00" xmlns="http://www.w3.org/2000/svg" xmlns:xlink="http://www.w3.org/1999/xlink">
<g id="graph0" class="graph" transform="scale(1 1) rotate(0) translate(4 179)">
<title>%3</title>
<polygon fill="#ffffff" stroke="transparent" points="-4,4 -4,-179 878.9766,-179 878.9766,4 -4,4"/>
<!-- out1 -->
<g id="node1" class="node">
<title>out1</title>
<text text-anchor="middle" x="839.2329" y="-82.8" font-family="Times,serif" font-size="14.00" fill="#000000">out1</text>
<text text-anchor="middle" x="839.2329" y="-68.8" font-family="Times,serif" font-size="14.00" fill="#000000">01101001</text>
</g>
<!-- in3 -->
<g id="node2" class="node">
<title>in3</title>
<text text-anchor="middle" x="44.4321" y="-47.8" font-family="Times,serif" font-size="14.00" fill="#000000">INPUT in3 0</text>
<text text-anchor="middle" x="44.4321" y="-33.8" font-family="Times,serif" font-size="14.00" fill="#000000">01010101</text>
</g>
<!-- g8 -->
<g id="node7" class="node">
<title>g8</title>
<polygon fill="#ffffff" stroke="#000000" points="197.6715,-36 125.6157,-36 125.6157,0 197.6715,0 197.6715,-36"/>
<text text-anchor="middle" x="161.6436" y="-20.8" font-family="Times,serif" font-size="14.00" fill="#000000">NOT g8 1</text>
<text text-anchor="middle" x="161.6436" y="-6.8" font-family="Times,serif" font-size="14.00" fill="#000000">10101010</text>
</g>
<!-- in3&#45;&gt;g8 -->
<g id="edge15" class="edge">
<title>in3&#45;&gt;g8</title>
<path fill="none" stroke="#000000" d="M89.0791,-31.5C89.0791,-31.5 115.4861,-31.5 115.4861,-31.5"/>
<polygon fill="#000000" stroke="#000000" points="115.4861,-35.0001 125.4861,-31.5 115.4861,-28.0001 115.4861,-35.0001"/>
</g>
<!-- g6 -->
<g id="node9" class="node">
<title>g6</title>
<polygon fill="#ffffff" stroke="#000000" points="198.2035,-90 125.0836,-90 125.0836,-54 198.2035,-54 198.2035,-90"/>
<text text-anchor="middle" x="161.6436" y="-74.8" font-family="Times,serif" font-size="14.00" fill="#000000">NOR g6 1</text>
<text text-anchor="middle" x="161.6436" y="-60.8" font-family="Times,serif" font-size="14.00" fill="#000000">10001000</text>
</g>
<!-- in3&#45;&gt;g6 -->
<g id="edge11" class="edge">
<title>in3&#45;&gt;g6</title>
<path fill="none" stroke="#000000" d="M89.0791,-58.5C89.0791,-58.5 114.7419,-58.5 114.7419,-58.5"/>
<polygon fill="#000000" stroke="#000000" points="114.7419,-62.0001 124.7419,-58.5 114.7418,-55.0001 114.7419,-62.0001"/>
</g>
<!-- in2 -->
<g id="node3" class="node">
<title>in2</title>
<text text-anchor="middle" x="44.4321" y="-114.8" font-family="Times,serif" font-size="14.00" fill="#000000">INPUT in2 0</text>
<text text-anchor="middle" x="44.4321" y="-100.8" font-family="Times,serif" font-size="14.00" fill="#000000">00110011</text>
</g>
<!-- g9 -->
<g id="node6" class="node">
<title>g9</title>
<polygon fill="#ffffff" stroke="#000000" points="197.6715,-144 125.6157,-144 125.6157,-108 197.6715,-108 197.6715,-144"/>
<text text-anchor="middle" x="161.6436" y="-128.8" font-family="Times,serif" font-size="14.00" fill="#000000">NOT g9 1</text>
<text text-anchor="middle" x="161.6436" y="-114.8" font-family="Times,serif" font-size="14.00" fill="#000000">11001100</text>
</g>
<!-- in2&#45;&gt;g9 -->
<g id="edge16" class="edge">
<title>in2&#45;&gt;g9</title>
<path fill="none" stroke="#000000" d="M89.0791,-119C89.0791,-119 115.4861,-119 115.4861,-119"/>
<polygon fill="#000000" stroke="#000000" points="115.4861,-122.5001 125.4861,-119 115.4861,-115.5001 115.4861,-122.5001"/>
</g>
<!-- in2&#45;&gt;g6 -->
<g id="edge12" class="edge">
<title>in2&#45;&gt;g6</title>
<path fill="none" stroke="#000000" d="M88.8706,-103.3333C122.1572,-103.3333 161.9766,-103.3333 161.9766,-103.3333 161.9766,-103.3333 161.9766,-100.2267 161.9766,-100.2267"/>
<polygon fill="#000000" stroke="#000000" points="165.4767,-100.2267 161.9766,-90.2267 158.4767,-100.2268 165.4767,-100.2267"/>
</g>
<!-- in1 -->
<g id="node4" class="node">
<title>in1</title>
<text text-anchor="middle" x="388.4136" y="-132.8" font-family="Times,serif" font-size="14.00" fill="#000000">INPUT in1 0</text>
<text text-anchor="middle" x="388.4136" y="-118.8" font-family="Times,serif" font-size="14.00" fill="#000000">00001111</text>
</g>
<!-- g10 -->
<g id="node5" class="node">
<title>g10</title>
<polygon fill="#ffffff" stroke="#000000" points="548.1367,-175 469.0811,-175 469.0811,-139 548.1367,-139 548.1367,-175"/>
<text text-anchor="middle" x="508.6089" y="-159.8" font-family="Times,serif" font-size="14.00" fill="#000000">NOT g10 1</text>
<text text-anchor="middle" x="508.6089" y="-145.8" font-family="Times,serif" font-size="14.00" fill="#000000">11110000</text>
</g>
<!-- in1&#45;&gt;g10 -->
<g id="edge17" class="edge">
<title>in1&#45;&gt;g10</title>
<path fill="none" stroke="#000000" d="M432.8284,-143.5C432.8284,-143.5 458.7421,-143.5 458.7421,-143.5"/>
<polygon fill="#000000" stroke="#000000" points="458.7421,-147.0001 468.7421,-143.5 458.7421,-140.0001 458.7421,-147.0001"/>
</g>
<!-- g2 -->
<g id="node13" class="node">
<title>g2</title>
<polygon fill="#ffffff" stroke="#000000" points="545.1688,-121 472.049,-121 472.049,-85 545.1688,-85 545.1688,-121"/>
<text text-anchor="middle" x="508.6089" y="-105.8" font-family="Times,serif" font-size="14.00" fill="#000000">NOR g2 4</text>
<text text-anchor="middle" x="508.6089" y="-91.8" font-family="Times,serif" font-size="14.00" fill="#000000">10010000</text>
</g>
<!-- in1&#45;&gt;g2 -->
<g id="edge5" class="edge">
<title>in1&#45;&gt;g2</title>
<path fill="none" stroke="#000000" d="M432.8284,-116.5C432.8284,-116.5 461.8523,-116.5 461.8523,-116.5"/>
<polygon fill="#000000" stroke="#000000" points="461.8523,-120.0001 471.8523,-116.5 461.8523,-113.0001 461.8523,-120.0001"/>
</g>
<!-- g3 -->
<g id="node12" class="node">
<title>g3</title>
<polygon fill="#ffffff" stroke="#000000" points="657.7113,-75 584.5915,-75 584.5915,-39 657.7113,-39 657.7113,-75"/>
<text text-anchor="middle" x="621.1514" y="-59.8" font-family="Times,serif" font-size="14.00" fill="#000000">NOR g3 5</text>
<text text-anchor="middle" x="621.1514" y="-45.8" font-family="Times,serif" font-size="14.00" fill="#000000">00000110</text>
</g>
<!-- g10&#45;&gt;g3 -->
<g id="edge7" class="edge">
<title>g10&#45;&gt;g3</title>
<path fill="none" stroke="#000000" d="M548.2594,-157C580.9514,-157 621.9766,-157 621.9766,-157 621.9766,-157 621.9766,-85.3415 621.9766,-85.3415"/>
<polygon fill="#000000" stroke="#000000" points="625.4767,-85.3415 621.9766,-75.3415 618.4767,-85.3416 625.4767,-85.3415"/>
</g>
<!-- g7 -->
<g id="node8" class="node">
<title>g7</title>
<polygon fill="#ffffff" stroke="#000000" points="307.7621,-44 234.6422,-44 234.6422,-8 307.7621,-8 307.7621,-44"/>
<text text-anchor="middle" x="271.2021" y="-28.8" font-family="Times,serif" font-size="14.00" fill="#000000">NOR g7 2</text>
<text text-anchor="middle" x="271.2021" y="-14.8" font-family="Times,serif" font-size="14.00" fill="#000000">00010001</text>
</g>
<!-- g9&#45;&gt;g7 -->
<g id="edge14" class="edge">
<title>g9&#45;&gt;g7</title>
<path fill="none" stroke="#000000" d="M197.7707,-128C229.9485,-128 271.9766,-128 271.9766,-128 271.9766,-128 271.9766,-54.2356 271.9766,-54.2356"/>
<polygon fill="#000000" stroke="#000000" points="275.4767,-54.2355 271.9766,-44.2356 268.4767,-54.2356 275.4767,-54.2355"/>
</g>
<!-- g8&#45;&gt;g7 -->
<g id="edge13" class="edge">
<title>g8&#45;&gt;g7</title>
<path fill="none" stroke="#000000" d="M197.8208,-22C197.8208,-22 224.3134,-22 224.3134,-22"/>
<polygon fill="#000000" stroke="#000000" points="224.3135,-25.5001 234.3134,-22 224.3134,-18.5001 224.3135,-25.5001"/>
</g>
<!-- g5 -->
<g id="node10" class="node">
<title>g5</title>
<polygon fill="#ffffff" stroke="#000000" points="424.9735,-67 351.8537,-67 351.8537,-31 424.9735,-31 424.9735,-67"/>
<text text-anchor="middle" x="388.4136" y="-51.8" font-family="Times,serif" font-size="14.00" fill="#000000">NOR g5 3</text>
<text text-anchor="middle" x="388.4136" y="-37.8" font-family="Times,serif" font-size="14.00" fill="#000000">01100110</text>
</g>
<!-- g7&#45;&gt;g5 -->
<g id="edge10" class="edge">
<title>g7&#45;&gt;g5</title>
<path fill="none" stroke="#000000" d="M307.967,-37.5C307.967,-37.5 341.7792,-37.5 341.7792,-37.5"/>
<polygon fill="#000000" stroke="#000000" points="341.7792,-41.0001 351.7792,-37.5 341.7792,-34.0001 341.7792,-41.0001"/>
</g>
<!-- g6&#45;&gt;g5 -->
<g id="edge9" class="edge">
<title>g6&#45;&gt;g5</title>
<path fill="none" stroke="#000000" d="M198.3301,-60.5C198.3301,-60.5 341.7797,-60.5 341.7797,-60.5"/>
<polygon fill="#000000" stroke="#000000" points="341.7798,-64.0001 351.7797,-60.5 341.7797,-57.0001 341.7798,-64.0001"/>
</g>
<!-- g4 -->
<g id="node11" class="node">
<title>g4</title>
<polygon fill="#ffffff" stroke="#000000" points="544.6368,-67 472.581,-67 472.581,-31 544.6368,-31 544.6368,-67"/>
<text text-anchor="middle" x="508.6089" y="-51.8" font-family="Times,serif" font-size="14.00" fill="#000000">NOT g4 4</text>
<text text-anchor="middle" x="508.6089" y="-37.8" font-family="Times,serif" font-size="14.00" fill="#000000">10011001</text>
</g>
<!-- g5&#45;&gt;g4 -->
<g id="edge8" class="edge">
<title>g5&#45;&gt;g4</title>
<path fill="none" stroke="#000000" d="M425.1292,-49C425.1292,-49 462.5311,-49 462.5311,-49"/>
<polygon fill="#000000" stroke="#000000" points="462.5311,-52.5001 472.5311,-49 462.531,-45.5001 462.5311,-52.5001"/>
</g>
<!-- g5&#45;&gt;g2 -->
<g id="edge4" class="edge">
<title>g5&#45;&gt;g2</title>
<path fill="none" stroke="#000000" d="M388.9766,-67.212C388.9766,-81.3869 388.9766,-98.6667 388.9766,-98.6667 388.9766,-98.6667 461.7391,-98.6667 461.7391,-98.6667"/>
<polygon fill="#000000" stroke="#000000" points="461.7391,-102.1668 471.7391,-98.6667 461.739,-95.1668 461.7391,-102.1668"/>
</g>
<!-- g4&#45;&gt;g3 -->
<g id="edge6" class="edge">
<title>g4&#45;&gt;g3</title>
<path fill="none" stroke="#000000" d="M544.8375,-53C544.8375,-53 574.218,-53 574.218,-53"/>
<polygon fill="#000000" stroke="#000000" points="574.218,-56.5001 584.218,-53 574.2179,-49.5001 574.218,-56.5001"/>
</g>
<!-- g1 -->
<g id="node14" class="node">
<title>g1</title>
<polygon fill="#ffffff" stroke="#000000" points="767.2699,-98 694.1501,-98 694.1501,-62 767.2699,-62 767.2699,-98"/>
<text text-anchor="middle" x="730.71" y="-82.8" font-family="Times,serif" font-size="14.00" fill="#000000">NOR g1 6</text>
<text text-anchor="middle" x="730.71" y="-68.8" font-family="Times,serif" font-size="14.00" fill="#000000">01101001</text>
</g>
<!-- g3&#45;&gt;g1 -->
<g id="edge3" class="edge">
<title>g3&#45;&gt;g1</title>
<path fill="none" stroke="#000000" d="M657.9376,-68.5C657.9376,-68.5 683.8344,-68.5 683.8344,-68.5"/>
<polygon fill="#000000" stroke="#000000" points="683.8344,-72.0001 693.8344,-68.5 683.8343,-65.0001 683.8344,-72.0001"/>
</g>
<!-- g2&#45;&gt;g1 -->
<g id="edge2" class="edge">
<title>g2&#45;&gt;g1</title>
<path fill="none" stroke="#000000" d="M545.2844,-91.5C545.2844,-91.5 683.98,-91.5 683.98,-91.5"/>
<polygon fill="#000000" stroke="#000000" points="683.98,-95.0001 693.98,-91.5 683.98,-88.0001 683.98,-95.0001"/>
</g>
<!-- g1&#45;&gt;out1 -->
<g id="edge1" class="edge">
<title>g1&#45;&gt;out1</title>
<path fill="none" stroke="#000000" d="M767.4509,-80C767.4509,-80 793.2659,-80 793.2659,-80"/>
<polygon fill="#000000" stroke="#000000" points="793.2659,-83.5001 803.2659,-80 793.2659,-76.5001 793.2659,-83.5001"/>
</g>
</g>
</svg>
