<?xml version="1.0" encoding="UTF-8" standalone="no"?>
<!DOCTYPE svg PUBLIC "-//W3C//DTD SVG 1.1//EN"
 "http://www.w3.org/Graphics/SVG/1.1/DTD/svg11.dtd">
<!-- Generated by graphviz version 2.40.1 (20161225.0304)
 -->
<!-- Title: %3 Pages: 1 -->
<svg width="509pt" height="126pt"
 viewBox="0.00 0.00 508.94 126.00" xmlns="http://www.w3.org/2000/svg" xmlns:xlink="http://www.w3.org/1999/xlink">
<g id="graph0" class="graph" transform="scale(1 1) rotate(0) translate(4 122)">
<title>%3</title>
<polygon fill="#ffffff" stroke="transparent" points="-4,4 -4,-122 504.9385,-122 504.9385,4 -4,4"/>
<!-- YFP -->
<g id="node1" class="node">
<title>YFP</title>
<text text-anchor="middle" x="470.1885" y="-68.8" font-family="Times,serif" font-size="14.00" fill="#000000">YFP</text>
<text text-anchor="middle" x="470.1885" y="-54.8" font-family="Times,serif" font-size="14.00" fill="#000000"> &#160;328.00</text>
<text text-anchor="middle" x="470.1885" y="-40.8" font-family="Times,serif" font-size="14.00" fill="#000000">0001</text>
</g>
<!-- pTet -->
<g id="node2" class="node">
<title>pTet</title>
<text text-anchor="middle" x="53.7666" y="-102.8" font-family="Times,serif" font-size="14.00" fill="#000000">INPUT pTet 0</text>
<text text-anchor="middle" x="53.7666" y="-88.8" font-family="Times,serif" font-size="14.00" fill="#000000"> 3384.62</text>
<text text-anchor="middle" x="53.7666" y="-74.8" font-family="Times,serif" font-size="14.00" fill="#000000">0101</text>
</g>
<!-- S2_SrpR -->
<g id="node5" class="node">
<title>S2_SrpR</title>
<polygon fill="#ffffff" stroke="#000000" points="256.1812,-118 146.9838,-118 146.9838,-68 256.1812,-68 256.1812,-118"/>
<text text-anchor="middle" x="201.5825" y="-102.8" font-family="Times,serif" font-size="14.00" fill="#000000">NOT S2_SrpR 1</text>
<text text-anchor="middle" x="201.5825" y="-88.8" font-family="Times,serif" font-size="14.00" fill="#000000"> &#160;697.50</text>
<text text-anchor="middle" x="201.5825" y="-74.8" font-family="Times,serif" font-size="14.00" fill="#000000">1010</text>
</g>
<!-- pTet&#45;&gt;S2_SrpR -->
<g id="edge4" class="edge">
<title>pTet&#45;&gt;S2_SrpR</title>
<path fill="none" stroke="#000000" d="M101.7582,-93C101.7582,-93 136.908,-93 136.908,-93"/>
<polygon fill="#000000" stroke="#000000" points="136.908,-96.5001 146.908,-93 136.908,-89.5001 136.908,-96.5001"/>
</g>
<!-- pBAD -->
<g id="node3" class="node">
<title>pBAD</title>
<text text-anchor="middle" x="53.7666" y="-34.8" font-family="Times,serif" font-size="14.00" fill="#000000">INPUT pBAD 0</text>
<text text-anchor="middle" x="53.7666" y="-20.8" font-family="Times,serif" font-size="14.00" fill="#000000"> &#160;304.88</text>
<text text-anchor="middle" x="53.7666" y="-6.8" font-family="Times,serif" font-size="14.00" fill="#000000">0011</text>
</g>
<!-- A1_AmtR -->
<g id="node6" class="node">
<title>A1_AmtR</title>
<polygon fill="#ffffff" stroke="#000000" points="259.6812,-50 143.4838,-50 143.4838,0 259.6812,0 259.6812,-50"/>
<text text-anchor="middle" x="201.5825" y="-34.8" font-family="Times,serif" font-size="14.00" fill="#000000">NOT A1_AmtR 1</text>
<text text-anchor="middle" x="201.5825" y="-20.8" font-family="Times,serif" font-size="14.00" fill="#000000"> &#160;&#160;51.00</text>
<text text-anchor="middle" x="201.5825" y="-6.8" font-family="Times,serif" font-size="14.00" fill="#000000">1100</text>
</g>
<!-- pBAD&#45;&gt;A1_AmtR -->
<g id="edge5" class="edge">
<title>pBAD&#45;&gt;A1_AmtR</title>
<path fill="none" stroke="#000000" d="M107.5497,-25C107.5497,-25 133.3499,-25 133.3499,-25"/>
<polygon fill="#000000" stroke="#000000" points="133.3499,-28.5001 143.3499,-25 133.3499,-21.5001 133.3499,-28.5001"/>
</g>
<!-- P3_PhlF -->
<g id="node4" class="node">
<title>P3_PhlF</title>
<polygon fill="#ffffff" stroke="#000000" points="403.342,-84 295.7283,-84 295.7283,-34 403.342,-34 403.342,-84"/>
<text text-anchor="middle" x="349.5352" y="-68.8" font-family="Times,serif" font-size="14.00" fill="#000000">NOR P3_PhlF 2</text>
<text text-anchor="middle" x="349.5352" y="-54.8" font-family="Times,serif" font-size="14.00" fill="#000000"> &#160;328.00</text>
<text text-anchor="middle" x="349.5352" y="-40.8" font-family="Times,serif" font-size="14.00" fill="#000000">0001</text>
</g>
<!-- P3_PhlF&#45;&gt;YFP -->
<g id="edge1" class="edge">
<title>P3_PhlF&#45;&gt;YFP</title>
<path fill="none" stroke="#000000" d="M403.5097,-59C403.5097,-59 429.3962,-59 429.3962,-59"/>
<polygon fill="#000000" stroke="#000000" points="429.3962,-62.5001 439.3962,-59 429.3961,-55.5001 429.3962,-62.5001"/>
</g>
<!-- S2_SrpR&#45;&gt;P3_PhlF -->
<g id="edge2" class="edge">
<title>S2_SrpR&#45;&gt;P3_PhlF</title>
<path fill="none" stroke="#000000" d="M256.2543,-76C256.2543,-76 285.5812,-76 285.5812,-76"/>
<polygon fill="#000000" stroke="#000000" points="285.5813,-79.5001 295.5812,-76 285.5812,-72.5001 285.5813,-79.5001"/>
</g>
<!-- A1_AmtR&#45;&gt;P3_PhlF -->
<g id="edge3" class="edge">
<title>A1_AmtR&#45;&gt;P3_PhlF</title>
<path fill="none" stroke="#000000" d="M259.6327,-42C259.6327,-42 285.5141,-42 285.5141,-42"/>
<polygon fill="#000000" stroke="#000000" points="285.5141,-45.5001 295.5141,-42 285.5141,-38.5001 285.5141,-45.5001"/>
</g>
</g>
</svg>
