<?xml version="1.0" encoding="UTF-8" standalone="no"?>
<!DOCTYPE svg PUBLIC "-//W3C//DTD SVG 1.1//EN"
 "http://www.w3.org/Graphics/SVG/1.1/DTD/svg11.dtd">
<!-- Generated by graphviz version 2.40.1 (20161225.0304)
 -->
<!-- Title: %3 Pages: 1 -->
<svg width="368pt" height="170pt"
 viewBox="0.00 0.00 368.00 170.00" xmlns="http://www.w3.org/2000/svg" xmlns:xlink="http://www.w3.org/1999/xlink">
<g id="graph0" class="graph" transform="scale(1 1) rotate(0) translate(4 166)">
<title>%3</title>
<polygon fill="#ffffff" stroke="transparent" points="-4,4 -4,-166 364,-166 364,4 -4,4"/>
<!-- YFP -->
<g id="node1" class="node">
<title>YFP</title>
<text text-anchor="middle" x="333" y="-76.8" font-family="Times,serif" font-size="14.00" fill="#000000">YFP</text>
</g>
<!-- pTet -->
<g id="node2" class="node">
<title>pTet</title>
<text text-anchor="middle" x="27" y="-121.8" font-family="Times,serif" font-size="14.00" fill="#000000">pTet</text>
</g>
<!-- S2_SrpR -->
<g id="node5" class="node">
<title>S2_SrpR</title>
<image xlink:href="demo001_A000_xfer_model_S2_SrpR.png" width="72px" height="72px" preserveAspectRatio="xMinYMin meet" x="90" y="-162"/>
</g>
<!-- pTet&#45;&gt;S2_SrpR -->
<g id="edge4" class="edge">
<title>pTet&#45;&gt;S2_SrpR</title>
<path fill="none" stroke="#000000" d="M54.0522,-126C54.0522,-126 79.6982,-126 79.6982,-126"/>
<polygon fill="#000000" stroke="#000000" points="79.6982,-129.5001 89.6982,-126 79.6982,-122.5001 79.6982,-129.5001"/>
</g>
<!-- pBAD -->
<g id="node3" class="node">
<title>pBAD</title>
<text text-anchor="middle" x="27" y="-31.8" font-family="Times,serif" font-size="14.00" fill="#000000">pBAD</text>
</g>
<!-- A1_AmtR -->
<g id="node6" class="node">
<title>A1_AmtR</title>
<image xlink:href="demo001_A000_xfer_model_A1_AmtR.png" width="72px" height="72px" preserveAspectRatio="xMinYMin meet" x="90" y="-72"/>
</g>
<!-- pBAD&#45;&gt;A1_AmtR -->
<g id="edge5" class="edge">
<title>pBAD&#45;&gt;A1_AmtR</title>
<path fill="none" stroke="#000000" d="M54.0522,-36C54.0522,-36 79.6982,-36 79.6982,-36"/>
<polygon fill="#000000" stroke="#000000" points="79.6982,-39.5001 89.6982,-36 79.6982,-32.5001 79.6982,-39.5001"/>
</g>
<!-- P3_PhlF -->
<g id="node4" class="node">
<title>P3_PhlF</title>
<image xlink:href="demo001_A000_xfer_model_P3_PhlF.png" width="72px" height="72px" preserveAspectRatio="xMinYMin meet" x="198" y="-117"/>
</g>
<!-- P3_PhlF&#45;&gt;YFP -->
<g id="edge1" class="edge">
<title>P3_PhlF&#45;&gt;YFP</title>
<path fill="none" stroke="#000000" d="M270.0213,-81C270.0213,-81 295.8547,-81 295.8547,-81"/>
<polygon fill="#000000" stroke="#000000" points="295.8548,-84.5001 305.8547,-81 295.8547,-77.5001 295.8548,-84.5001"/>
</g>
<!-- S2_SrpR&#45;&gt;P3_PhlF -->
<g id="edge2" class="edge">
<title>S2_SrpR&#45;&gt;P3_PhlF</title>
<path fill="none" stroke="#000000" d="M162.2629,-103.5C162.2629,-103.5 187.649,-103.5 187.649,-103.5"/>
<polygon fill="#000000" stroke="#000000" points="187.649,-107.0001 197.649,-103.5 187.649,-100.0001 187.649,-107.0001"/>
</g>
<!-- A1_AmtR&#45;&gt;P3_PhlF -->
<g id="edge3" class="edge">
<title>A1_AmtR&#45;&gt;P3_PhlF</title>
<path fill="none" stroke="#000000" d="M162.2629,-58.5C162.2629,-58.5 187.649,-58.5 187.649,-58.5"/>
<polygon fill="#000000" stroke="#000000" points="187.649,-62.0001 197.649,-58.5 187.649,-55.0001 187.649,-62.0001"/>
</g>
</g>
</svg>
