<?xml version="1.0" encoding="UTF-8" standalone="no"?>
<!DOCTYPE svg PUBLIC "-//W3C//DTD SVG 1.1//EN"
 "http://www.w3.org/Graphics/SVG/1.1/DTD/svg11.dtd">
<!-- Generated by graphviz version 2.40.1 (20161225.0304)
 -->
<!-- Title: %3 Pages: 1 -->
<svg width="405pt" height="98pt"
 viewBox="0.00 0.00 404.95 98.00" xmlns="http://www.w3.org/2000/svg" xmlns:xlink="http://www.w3.org/1999/xlink">
<g id="graph0" class="graph" transform="scale(1 1) rotate(0) translate(4 94)">
<title>%3</title>
<polygon fill="#ffffff" stroke="transparent" points="-4,4 -4,-94 400.9492,-94 400.9492,4 -4,4"/>
<!-- out1 -->
<g id="node1" class="node">
<title>out1</title>
<text text-anchor="middle" x="369.9492" y="-47.8" font-family="Times,serif" font-size="14.00" fill="#000000">out1</text>
<text text-anchor="middle" x="369.9492" y="-33.8" font-family="Times,serif" font-size="14.00" fill="#000000">0001</text>
</g>
<!-- in2 -->
<g id="node2" class="node">
<title>in2</title>
<text text-anchor="middle" x="44.4321" y="-20.8" font-family="Times,serif" font-size="14.00" fill="#000000">INPUT in2 0</text>
<text text-anchor="middle" x="44.4321" y="-6.8" font-family="Times,serif" font-size="14.00" fill="#000000">0101</text>
</g>
<!-- g2 -->
<g id="node5" class="node">
<title>g2</title>
<polygon fill="#ffffff" stroke="#000000" points="197.1553,-36 125.0995,-36 125.0995,0 197.1553,0 197.1553,-36"/>
<text text-anchor="middle" x="161.1274" y="-20.8" font-family="Times,serif" font-size="14.00" fill="#000000">NOT g2 1</text>
<text text-anchor="middle" x="161.1274" y="-6.8" font-family="Times,serif" font-size="14.00" fill="#000000">1010</text>
</g>
<!-- in2&#45;&gt;g2 -->
<g id="edge4" class="edge">
<title>in2&#45;&gt;g2</title>
<path fill="none" stroke="#000000" d="M88.8825,-18C88.8825,-18 114.7592,-18 114.7592,-18"/>
<polygon fill="#000000" stroke="#000000" points="114.7592,-21.5001 124.7592,-18 114.7592,-14.5001 114.7592,-21.5001"/>
</g>
<!-- in1 -->
<g id="node3" class="node">
<title>in1</title>
<text text-anchor="middle" x="44.4321" y="-74.8" font-family="Times,serif" font-size="14.00" fill="#000000">INPUT in1 0</text>
<text text-anchor="middle" x="44.4321" y="-60.8" font-family="Times,serif" font-size="14.00" fill="#000000">0011</text>
</g>
<!-- g3 -->
<g id="node4" class="node">
<title>g3</title>
<polygon fill="#ffffff" stroke="#000000" points="197.1553,-90 125.0995,-90 125.0995,-54 197.1553,-54 197.1553,-90"/>
<text text-anchor="middle" x="161.1274" y="-74.8" font-family="Times,serif" font-size="14.00" fill="#000000">NOT g3 1</text>
<text text-anchor="middle" x="161.1274" y="-60.8" font-family="Times,serif" font-size="14.00" fill="#000000">1100</text>
</g>
<!-- in1&#45;&gt;g3 -->
<g id="edge5" class="edge">
<title>in1&#45;&gt;g3</title>
<path fill="none" stroke="#000000" d="M88.8825,-72C88.8825,-72 114.7592,-72 114.7592,-72"/>
<polygon fill="#000000" stroke="#000000" points="114.7592,-75.5001 124.7592,-72 114.7592,-68.5001 114.7592,-75.5001"/>
</g>
<!-- g1 -->
<g id="node6" class="node">
<title>g1</title>
<polygon fill="#ffffff" stroke="#000000" points="306.7298,-63 233.61,-63 233.61,-27 306.7298,-27 306.7298,-63"/>
<text text-anchor="middle" x="270.1699" y="-47.8" font-family="Times,serif" font-size="14.00" fill="#000000">NOR g1 2</text>
<text text-anchor="middle" x="270.1699" y="-33.8" font-family="Times,serif" font-size="14.00" fill="#000000">0001</text>
</g>
<!-- g3&#45;&gt;g1 -->
<g id="edge3" class="edge">
<title>g3&#45;&gt;g1</title>
<path fill="none" stroke="#000000" d="M197.437,-58.5C197.437,-58.5 223.2745,-58.5 223.2745,-58.5"/>
<polygon fill="#000000" stroke="#000000" points="223.2745,-62.0001 233.2745,-58.5 223.2745,-55.0001 223.2745,-62.0001"/>
</g>
<!-- g2&#45;&gt;g1 -->
<g id="edge2" class="edge">
<title>g2&#45;&gt;g1</title>
<path fill="none" stroke="#000000" d="M197.437,-31.5C197.437,-31.5 223.2745,-31.5 223.2745,-31.5"/>
<polygon fill="#000000" stroke="#000000" points="223.2745,-35.0001 233.2745,-31.5 223.2745,-28.0001 223.2745,-35.0001"/>
</g>
<!-- g1&#45;&gt;out1 -->
<g id="edge1" class="edge">
<title>g1&#45;&gt;out1</title>
<path fill="none" stroke="#000000" d="M306.7575,-45C306.7575,-45 332.7438,-45 332.7438,-45"/>
<polygon fill="#000000" stroke="#000000" points="332.7439,-48.5001 342.7438,-45 332.7438,-41.5001 332.7439,-48.5001"/>
</g>
</g>
</svg>
